<?xml version="1.0" encoding="utf-8"?>
<!-- Generator: Adobe Illustrator 24.0.2, SVG Export Plug-In . SVG Version: 6.00 Build 0)  -->
<svg version="1.1" id="Ebene_1" xmlns="http://www.w3.org/2000/svg" xmlns:xlink="http://www.w3.org/1999/xlink" x="0px" y="0px"
	 viewBox="0 0 47.6 47.6" style="enable-background:new 0 0 47.6 47.6;" xml:space="preserve">
<style type="text/css">
	.st0{fill:none;stroke:#2983FB;stroke-width:2;stroke-miterlimit:10;}
</style>
<title>contactus</title>
<g id="Ebene_2_1_">
	<g id="Ebene_1-2">
		<path id="layer2" class="st0" d="M34.9,24.5h3.8c1.2-0.1,2.2-1.1,2.3-2.3v-5.3c-0.1-1.2-1.1-2.2-2.3-2.3h-3.8"/>
		<path id="layer2-2" class="st0" d="M12.6,14.7H8.8c-1.2,0.1-2.2,1.1-2.3,2.3v5.3c0.1,1.2,1.1,2.2,2.3,2.3h4.7"/>
		<path id="layer1" class="st0" d="M29.5,29.1v3.8c0,1.5-0.3,3.8,8,5.3c4.3,0.8,7.8,4,8.9,8.3H1.2c1-4.3,4.5-7.6,8.8-8.3
			c8.4-1.5,8.1-3.8,8.1-5.3v-2.1c-3.5-2.8-5.5-7-5.4-11.5v-7.5c0-7.8,6-10.6,11.1-10.6l0,0C28.9,1.2,35,3.9,35,11.8v12.1
			C34.9,26.8,31.8,29.1,29.5,29.1"/>
		<path id="layer2-3" class="st0" d="M29.5,29.1c-0.1-1.2-1.1-2.2-2.3-2.3h-1.5c-1.3,0-2.3,1-2.3,2.3l0,0c0.1,1.2,1.1,2.2,2.3,2.3
			h1.5C28.4,31.3,29.4,30.3,29.5,29.1z"/>
		<polyline id="layer1-2" class="st0" points="16,36.3 23.7,45.7 31.5,36.3 		"/>
		<path id="layer1-3" class="st0" d="M12.6,13.2c9.2,0,9.2-6,15.3-6c3.3-0.1,6.1,2.1,6.9,5.3"/>
	</g>
</g>
</svg>
