<svg xmlns="http://www.w3.org/2000/svg" viewBox="0 0 48.62 48"><defs><style>.cls-1{fill:none;stroke:#2983fb;stroke-miterlimit:10;stroke-width:2px;}</style></defs><title>Element 1</title><g id="Ebene_2" data-name="Ebene 2"><g id="Ebene_1-2" data-name="Ebene 1"><circle id="layer1" class="cls-1" cx="24.23" cy="24.01" r="6.6" transform="matrix(0.07, -1, 1, 0.07, -1.33, 46.58)"/><path id="layer1-2" data-name="layer1" class="cls-1" d="M47.26,30.2l-5.1-3a16.55,16.55,0,0,0,.3-3.2,20.68,20.68,0,0,0-.3-3.5l4.7-2.7L40.76,7.2,36,10a17.19,17.19,0,0,0-5.1-3.3V1H17.76V6.7a15.57,15.57,0,0,0-5.2,3.2L7.86,7.2,1.76,17.8l4.6,2.7a19.83,19.83,0,0,0-.3,3.5,18.41,18.41,0,0,0,.3,3.3l-5,2.9,6.1,10.6,5-2.9a14.56,14.56,0,0,0,5.4,3.4V47H31V41.3a15.8,15.8,0,0,0,5.3-3.5l5.1,2.9Z"/></g></g></svg>