<?xml version="1.0" standalone="no"?>
<!DOCTYPE svg PUBLIC "-//W3C//DTD SVG 20010904//EN"
 "http://www.w3.org/TR/2001/REC-SVG-20010904/DTD/svg10.dtd">
<svg version="1.0" xmlns="http://www.w3.org/2000/svg"
 width="1571.000000pt" height="714.000000pt" viewBox="0 0 1571.000000 714.000000"
 preserveAspectRatio="xMidYMid meet">

<g transform="translate(0.000000,714.000000) scale(0.100000,-0.100000)"
fill="#000000" stroke="none">
<path d="M12360 7021 c0 -20 -8 -35 -27 -49 -25 -18 -29 -18 -51 -4 -27 18
-29 16 -72 -60 l-32 -58 26 -11 c21 -10 26 -19 26 -46 0 -27 -6 -37 -29 -50
l-28 -17 35 -60 c19 -34 36 -62 38 -64 1 -2 15 3 30 11 26 14 31 13 56 -5 20
-14 28 -28 28 -49 l0 -29 75 0 75 0 0 29 c0 21 8 35 28 49 25 18 30 19 56 5
15 -8 29 -13 31 -11 2 2 19 30 38 63 l35 59 -29 18 c-40 24 -42 79 -3 97 l26
11 -32 58 c-42 75 -45 77 -71 59 -20 -15 -24 -15 -51 4 -20 14 -28 29 -28 50
l0 29 -75 0 -75 0 0 -29z m140 -18 c0 -39 57 -77 85 -57 23 17 28 14 59 -42
l25 -45 -24 -11 c-21 -9 -25 -18 -25 -55 0 -37 4 -45 25 -55 31 -14 31 -15 -1
-72 -25 -45 -26 -45 -52 -32 -23 12 -29 11 -59 -8 -24 -15 -33 -28 -33 -48 0
-28 -1 -28 -65 -28 -64 0 -65 0 -65 28 0 20 -9 33 -34 49 -30 19 -36 20 -52 8
-28 -21 -30 -20 -59 32 l-26 48 22 18 c34 27 36 92 4 113 l-24 16 31 49 c28
47 32 49 51 36 19 -13 25 -12 54 7 24 15 33 29 33 49 0 27 1 27 65 27 64 0 65
0 65 -27z"/>
<path d="M12403 6860 c-44 -18 -57 -81 -24 -121 42 -52 131 -17 131 51 0 53
-57 91 -107 70z m77 -30 c49 -49 -7 -120 -75 -94 -37 15 -38 82 -1 106 20 14
56 8 76 -12z"/>
<path d="M953 6997 c-118 -40 -123 -43 -123 -69 0 -25 3 -28 35 -28 l35 0 0
-130 c0 -120 -1 -130 -18 -130 -28 0 -52 -32 -52 -68 l0 -32 265 0 265 0 0 33
c0 36 -25 67 -53 67 -15 0 -17 15 -17 130 l0 130 35 0 c32 0 35 3 35 28 0 27
-5 29 -128 70 -70 23 -134 42 -142 41 -8 0 -70 -19 -137 -42z m267 -15 c113
-38 143 -57 98 -64 -13 -2 -123 -2 -246 0 -163 2 -222 6 -220 14 4 11 207 86
238 87 9 1 67 -16 130 -37z m-260 -212 c0 -123 -1 -130 -20 -130 -19 0 -20 7
-20 130 0 123 1 130 20 130 19 0 20 -7 20 -130z m90 0 l0 -130 -35 0 -35 0 0
130 0 130 35 0 35 0 0 -130z m70 0 l0 -130 -25 0 -25 0 0 130 0 130 25 0 25 0
0 -130z m90 0 l0 -130 -35 0 -35 0 0 130 0 130 35 0 35 0 0 -130z m60 0 c0
-123 -1 -130 -20 -130 -19 0 -20 7 -20 130 0 123 1 130 20 130 19 0 20 -7 20
-130z m64 -166 c3 -9 6 -24 6 -35 0 -18 -10 -19 -245 -19 -235 0 -245 1 -245
19 0 52 -5 51 245 51 203 0 234 -2 239 -16z"/>
<path d="M4652 6929 c-45 -75 -48 -110 -11 -130 17 -9 19 -22 19 -114 l0 -105
85 0 85 0 0 70 0 70 50 0 c28 0 50 5 50 10 0 6 -27 10 -60 10 l-60 0 0 -70 0
-70 -65 0 -65 0 0 90 0 90 37 15 c25 11 40 12 47 5 15 -15 77 -12 96 5 15 14
18 14 30 0 14 -17 81 -20 96 -5 7 7 22 6 47 -5 l37 -15 0 -90 0 -90 -65 0
c-37 0 -65 -4 -65 -10 0 -6 32 -10 75 -10 l75 0 0 105 c0 82 3 107 14 111 8 3
19 18 25 33 11 24 7 35 -30 99 l-42 72 -181 0 -181 0 -43 -71z m118 42 c0 -5
-7 -25 -15 -45 -14 -33 -19 -36 -55 -36 -22 0 -40 3 -40 6 0 4 10 24 22 45 18
33 27 39 55 39 18 0 33 -4 33 -9z m98 -33 l-3 -43 -47 -3 c-53 -3 -56 1 -34
53 13 31 19 35 51 35 l36 0 -3 -42z m104 3 c18 -45 13 -51 -48 -51 -34 0 -34
0 -34 45 0 44 0 45 33 45 30 0 36 -4 49 -39z m96 0 c12 -21 22 -42 22 -45 0
-4 -17 -6 -37 -4 -32 3 -41 9 -55 38 -23 48 -23 50 15 50 28 0 37 -6 55 -39z
m-333 -71 c10 -16 -4 -49 -25 -60 -37 -20 -88 18 -74 55 7 17 89 21 99 5z
m128 4 c11 -12 -15 -62 -36 -68 -30 -8 -67 19 -67 49 0 23 4 25 48 25 27 0 51
-3 55 -6z m127 -19 c0 -30 -37 -57 -67 -49 -21 6 -47 56 -36 68 4 3 28 6 55 6
44 0 48 -2 48 -25z m124 10 c13 -34 -33 -73 -70 -58 -18 7 -37 50 -28 64 9 16
91 11 98 -6z"/>
<path d="M8555 6965 c-14 -13 -25 -33 -25 -45 0 -18 -6 -20 -54 -20 -80 0 -86
-12 -86 -177 0 -82 4 -133 10 -133 6 0 10 53 10 140 l0 140 26 10 c14 6 41 10
60 10 l34 0 0 -150 c0 -93 4 -150 10 -150 6 0 10 66 10 178 0 125 4 182 12
190 7 7 43 12 93 12 50 0 86 -5 93 -12 8 -8 12 -65 12 -190 0 -112 4 -178 10
-178 6 0 10 42 10 105 l0 105 44 0 c76 0 76 0 76 -111 0 -59 4 -99 10 -99 6 0
10 38 10 95 0 117 -12 135 -90 135 l-50 0 0 60 c0 51 -4 65 -25 85 -21 22 -33
25 -100 25 -67 0 -79 -3 -100 -25z"/>
<path d="M8590 6895 c0 -20 5 -25 25 -25 20 0 25 5 25 25 0 20 -5 25 -25 25
-20 0 -25 -5 -25 -25z m40 5 c0 -5 -4 -10 -10 -10 -5 0 -10 5 -10 10 0 6 5 10
10 10 6 0 10 -4 10 -10z"/>
<path d="M8680 6895 c0 -20 5 -25 25 -25 20 0 25 5 25 25 0 20 -5 25 -25 25
-20 0 -25 -5 -25 -25z m35 5 c3 -5 -1 -10 -9 -10 -9 0 -16 5 -16 10 0 6 4 10
9 10 6 0 13 -4 16 -10z"/>
<path d="M8450 6815 c0 -20 5 -25 25 -25 20 0 25 5 25 25 0 20 -5 25 -25 25
-20 0 -25 -5 -25 -25z m30 -5 c0 -5 -4 -10 -10 -10 -5 0 -10 5 -10 10 0 6 5
10 10 10 6 0 10 -4 10 -10z"/>
<path d="M8590 6815 c0 -20 5 -25 25 -25 20 0 25 5 25 25 0 20 -5 25 -25 25
-20 0 -25 -5 -25 -25z m40 -5 c0 -5 -4 -10 -10 -10 -5 0 -10 5 -10 10 0 6 5
10 10 10 6 0 10 -4 10 -10z"/>
<path d="M8680 6815 c0 -20 5 -25 25 -25 20 0 25 5 25 25 0 20 -5 25 -25 25
-20 0 -25 -5 -25 -25z m40 1 c0 -11 -19 -15 -25 -6 -3 5 1 10 9 10 9 0 16 -2
16 -4z"/>
<path d="M8450 6725 c0 -20 5 -25 25 -25 20 0 25 5 25 25 0 20 -5 25 -25 25
-20 0 -25 -5 -25 -25z m30 5 c0 -5 -5 -10 -11 -10 -5 0 -7 5 -4 10 3 6 8 10
11 10 2 0 4 -4 4 -10z"/>
<path d="M8590 6725 c0 -20 5 -25 25 -25 20 0 25 5 25 25 0 20 -5 25 -25 25
-20 0 -25 -5 -25 -25z m35 6 c3 -5 1 -12 -5 -16 -5 -3 -10 1 -10 9 0 18 6 21
15 7z"/>
<path d="M8680 6725 c0 -20 5 -25 25 -25 20 0 25 5 25 25 0 20 -5 25 -25 25
-20 0 -25 -5 -25 -25z m35 5 c3 -5 -1 -10 -10 -10 -9 0 -13 5 -10 10 3 6 8 10
10 10 2 0 7 -4 10 -10z"/>
<path d="M8810 6725 c0 -21 5 -25 30 -25 25 0 30 4 30 25 0 21 -5 25 -30 25
-25 0 -30 -4 -30 -25z m40 5 c0 -5 -5 -10 -11 -10 -5 0 -7 5 -4 10 3 6 8 10
11 10 2 0 4 -4 4 -10z"/>
<path d="M8450 6635 c0 -20 5 -25 25 -25 20 0 25 5 25 25 0 20 -5 25 -25 25
-20 0 -25 -5 -25 -25z m30 5 c0 -5 -4 -10 -10 -10 -5 0 -10 5 -10 10 0 6 5 10
10 10 6 0 10 -4 10 -10z"/>
<path d="M8590 6635 c0 -20 5 -25 25 -25 20 0 25 5 25 25 0 20 -5 25 -25 25
-20 0 -25 -5 -25 -25z m40 5 c0 -5 -4 -10 -10 -10 -5 0 -10 5 -10 10 0 6 5 10
10 10 6 0 10 -4 10 -10z"/>
<path d="M8680 6635 c0 -20 5 -25 25 -25 20 0 25 5 25 25 0 20 -5 25 -25 25
-20 0 -25 -5 -25 -25z m35 5 c3 -5 -1 -10 -10 -10 -9 0 -13 5 -10 10 3 6 8 10
10 10 2 0 7 -4 10 -10z"/>
<path d="M8810 6635 c0 -21 5 -25 30 -25 25 0 30 4 30 25 0 21 -5 25 -30 25
-25 0 -30 -4 -30 -25z m45 5 c3 -5 -1 -10 -9 -10 -9 0 -16 5 -16 10 0 6 4 10
9 10 6 0 13 -4 16 -10z"/>
<path d="M4417 6163 c-11 -11 -8 -153 3 -153 6 0 10 28 11 63 l1 62 21 -47
c12 -26 27 -48 32 -48 6 0 19 19 29 43 l20 42 6 -60 7 -60 1 83 c1 45 -2 82
-6 82 -5 0 -19 -26 -32 -57 l-24 -58 -25 57 c-26 57 -32 64 -44 51z"/>
<path d="M4920 6090 c0 -86 17 -111 22 -32 3 39 6 47 23 47 17 0 20 -8 23 -47
4 -58 22 -64 22 -9 0 57 -8 71 -41 71 -24 0 -29 4 -29 25 0 14 -4 25 -10 25
-6 0 -10 -33 -10 -80z"/>
<path d="M210 6141 c-17 -33 -12 -106 8 -124 24 -22 55 -21 75 1 26 28 20 38
-7 13 -20 -19 -28 -21 -45 -12 -17 10 -21 21 -21 66 0 51 2 55 27 61 19 5 30
2 39 -11 8 -10 17 -16 20 -12 14 13 -20 37 -52 37 -23 0 -37 -6 -44 -19z"/>
<path d="M1260 6144 c0 -8 5 -12 10 -9 6 3 10 10 10 16 0 5 -4 9 -10 9 -5 0
-10 -7 -10 -16z"/>
<path d="M1500 6081 l0 -81 43 0 c24 0 48 5 55 12 14 14 16 54 2 63 -6 4 -5
13 3 25 20 32 -2 54 -57 58 l-46 3 0 -80z m85 39 c0 -21 -5 -26 -32 -28 -31
-3 -33 -1 -33 28 0 29 2 31 33 28 27 -2 32 -7 32 -28z m-1 -56 c9 -8 16 -17
16 -19 0 -13 -35 -35 -56 -35 -21 0 -24 5 -24 35 0 30 3 35 24 35 14 0 32 -7
40 -16z"/>
<path d="M1900 6080 c0 -47 4 -80 10 -80 6 0 10 9 10 19 0 25 20 38 31 20 21
-36 28 -43 35 -37 3 4 -4 21 -16 38 -21 30 -21 32 -5 51 10 10 13 19 7 19 -6
0 -20 -12 -31 -27 l-20 -28 -1 53 c0 28 -4 52 -10 52 -6 0 -10 -33 -10 -80z"/>
<path d="M5299 6138 c-2 -13 -2 -45 1 -73 4 -40 9 -51 25 -53 16 -3 18 -1 8 9
-7 7 -13 30 -13 50 0 21 6 40 13 42 10 4 10 6 0 6 -7 1 -13 10 -13 21 0 27
-17 25 -21 -2z"/>
<path d="M7852 6148 c-28 -28 -11 -58 43 -75 17 -5 31 -17 33 -26 5 -23 -31
-39 -62 -27 -14 5 -26 6 -26 1 0 -27 75 -27 93 0 20 28 10 58 -22 65 -48 10
-52 14 -49 36 3 19 9 23 40 22 21 -1 35 3 32 7 -8 13 -68 11 -82 -3z"/>
<path d="M8620 6135 c0 -21 -5 -25 -29 -25 -31 0 -41 -14 -41 -60 0 -35 17
-49 58 -48 l32 1 0 79 c0 45 -4 78 -10 78 -5 0 -10 -11 -10 -25z m-2 -74 c4
-35 -11 -53 -34 -44 -31 11 -18 87 13 81 12 -2 19 -14 21 -37z"/>
<path d="M8980 6080 l0 -80 38 0 c21 0 47 6 58 14 16 12 17 19 8 44 -7 18 -8
35 -2 46 17 31 -8 56 -57 56 l-45 0 0 -80z m85 40 c0 -22 -5 -25 -37 -28 -36
-3 -38 -2 -38 28 0 30 2 31 38 28 32 -3 37 -6 37 -28z m-11 -46 c26 -10 20
-53 -9 -60 -47 -12 -63 11 -46 64 2 4 40 2 55 -4z"/>
<path d="M9382 6080 c0 -68 2 -79 10 -57 12 34 31 35 46 2 6 -14 17 -25 23
-25 6 0 1 16 -11 35 -21 35 -21 37 -5 55 10 11 14 20 8 20 -5 0 -20 -12 -34
-26 l-24 -26 -6 54 c-5 46 -6 41 -7 -32z"/>
<path d="M11540 6080 c0 -47 4 -80 10 -80 6 0 10 16 10 35 0 33 2 35 33 35 38
0 57 15 57 45 0 32 -20 45 -67 45 l-43 0 0 -80z m89 52 c14 -27 -5 -52 -39
-52 -28 0 -30 3 -30 35 0 32 2 35 30 35 18 0 33 -7 39 -18z"/>
<path d="M12522 6148 c-20 -20 -15 -112 6 -131 38 -35 92 -8 92 46 0 22 -5 27
-25 27 -14 0 -25 -4 -25 -10 0 -5 9 -10 20 -10 26 0 25 -15 0 -40 -16 -16 -25
-18 -40 -10 -16 9 -20 21 -20 65 0 51 2 55 27 61 19 5 30 2 39 -11 8 -10 17
-16 20 -12 4 4 1 13 -6 22 -15 18 -71 20 -88 3z"/>
<path d="M8229 6128 c-3 -76 10 -128 33 -128 9 0 9 3 0 12 -14 14 -16 88 -3
88 5 0 4 11 -2 25 -15 31 -27 32 -28 3z"/>
<path d="M12359 6128 c-2 -13 -2 -45 1 -73 4 -40 9 -51 25 -53 16 -3 18 -1 8
9 -7 7 -13 30 -13 50 0 21 6 40 13 42 10 4 10 6 0 6 -7 1 -13 10 -13 21 0 27
-17 25 -21 -2z"/>
<path d="M12783 6136 c3 -8 3 -17 -1 -21 -9 -8 -2 -76 9 -97 5 -10 15 -18 21
-18 9 0 9 3 0 12 -16 16 -15 85 1 91 10 4 10 6 0 6 -7 1 -13 10 -13 21 0 11
-5 20 -11 20 -6 0 -9 -6 -6 -14z"/>
<path d="M4598 6095 c-8 -19 -8 -31 0 -50 15 -32 37 -41 65 -26 22 11 22 11
-2 7 -25 -5 -51 8 -51 25 0 5 16 9 35 9 36 0 42 10 29 44 -10 27 -62 20 -76
-9z m65 1 c7 -19 -1 -26 -30 -26 -22 0 -31 19 -16 33 11 12 41 7 46 -7z"/>
<path d="M4721 6063 c1 -58 2 -58 8 -15 8 46 16 58 46 65 11 3 4 5 -17 6 l-38
1 1 -57z"/>
<path d="M4808 6095 c-8 -19 -8 -31 0 -50 15 -32 37 -41 65 -26 l22 12 -22 -5
c-33 -6 -55 15 -51 49 2 25 7 30 31 30 15 -1 27 3 27 7 0 4 -14 8 -30 8 -23 0
-33 -6 -42 -25z"/>
<path d="M5050 6110 c0 -6 10 -8 26 -4 17 4 29 2 34 -7 13 -19 3 -29 -30 -29
-16 0 -30 -7 -34 -16 -10 -26 13 -45 51 -42 l34 2 -3 51 -3 50 -37 3 c-23 2
-38 -1 -38 -8z m70 -59 c0 -15 -29 -33 -45 -27 -28 10 -17 36 15 36 17 0 30
-4 30 -9z"/>
<path d="M5170 6065 c0 -67 18 -73 22 -7 3 39 6 47 23 47 17 0 20 -8 23 -47 4
-58 22 -64 22 -9 0 61 -7 71 -51 71 l-39 0 0 -55z"/>
<path d="M349 6086 c-16 -35 -4 -74 26 -82 38 -9 57 12 53 60 -3 38 -5 41 -35
44 -27 3 -35 -1 -44 -22z m65 -2 c17 -44 -10 -88 -39 -64 -15 13 -21 61 -8 73
12 13 41 7 47 -9z"/>
<path d="M470 6055 c0 -67 18 -73 22 -7 3 39 6 47 23 47 17 0 20 -8 23 -47 4
-58 22 -64 22 -9 0 61 -7 71 -51 71 l-39 0 0 -55z"/>
<path d="M596 6094 c-9 -22 11 -44 40 -44 14 0 24 -6 24 -14 0 -18 -22 -26
-52 -19 -18 4 -20 3 -8 -6 21 -15 56 -13 70 4 18 22 6 42 -29 50 -42 9 -43 39
-1 33 17 -3 30 -1 30 4 0 16 -68 9 -74 -8z"/>
<path d="M710 6074 c0 -55 15 -74 55 -71 l35 2 -2 55 c-1 49 -2 50 -5 13 -7
-78 -63 -85 -63 -7 0 24 -4 44 -10 44 -5 0 -10 -16 -10 -36z"/>
<path d="M840 6055 c0 -67 18 -73 22 -7 3 39 6 47 23 47 17 0 20 -8 23 -47 2
-27 7 -48 12 -48 5 0 10 21 12 48 3 40 6 47 25 50 23 3 27 -5 37 -73 2 -16 3
-5 2 25 l-1 55 -77 3 -78 2 0 -55z"/>
<path d="M1052 6098 c-17 -17 -15 -64 4 -82 18 -18 43 -20 64 -5 12 9 10 10
-8 6 -30 -7 -52 1 -52 19 0 9 12 14 35 14 27 0 35 4 35 18 0 24 -19 42 -45 42
-12 0 -26 -5 -33 -12z m56 -21 c3 -12 -3 -17 -22 -17 -25 0 -35 18 -19 34 12
12 38 2 41 -17z"/>
<path d="M1169 6095 c-5 -71 3 -110 10 -50 5 46 9 50 36 56 29 6 29 7 -7 8
-27 1 -38 -3 -39 -14z"/>
<path d="M1306 6094 c-9 -22 11 -44 40 -44 15 0 24 -6 24 -15 0 -16 -8 -18
-50 -16 -20 2 -22 0 -10 -8 22 -15 56 -13 70 4 18 22 6 42 -29 50 -42 9 -43
39 -1 33 17 -3 30 -1 30 4 0 16 -68 9 -74 -8z"/>
<path d="M1655 6100 c-5 -7 2 -9 20 -4 18 4 30 2 35 -7 13 -19 3 -29 -30 -29
-16 0 -30 -7 -34 -16 -10 -26 13 -45 51 -42 l34 2 -3 51 c-3 48 -4 50 -35 53
-17 2 -34 -2 -38 -8z m65 -59 c0 -15 -29 -33 -45 -27 -28 10 -17 36 15 36 17
0 30 -4 30 -9z"/>
<path d="M1778 6100 c-2 -6 -1 -32 2 -58 l4 -47 6 50 c4 42 9 51 27 53 23 3
27 -5 37 -73 2 -16 3 -5 2 25 l-1 55 -36 3 c-21 2 -39 -2 -41 -8z"/>
<path d="M7980 6100 c0 -6 10 -8 26 -4 17 4 29 2 34 -7 13 -19 3 -29 -30 -29
-31 0 -47 -25 -29 -46 6 -8 26 -13 46 -11 l34 2 -3 50 c-3 50 -3 50 -40 53
-23 2 -38 -1 -38 -8z m70 -59 c0 -15 -29 -33 -45 -27 -28 10 -17 36 15 36 17
0 30 -4 30 -9z"/>
<path d="M8100 6055 c0 -67 18 -73 22 -7 3 39 6 47 23 47 17 0 20 -8 23 -47 4
-58 22 -64 22 -9 0 61 -7 71 -51 71 l-39 0 0 -55z"/>
<path d="M8306 6101 c-3 -5 9 -8 27 -7 42 1 44 -27 2 -34 -24 -4 -30 -10 -30
-30 0 -22 4 -25 38 -26 20 -1 37 2 38 5 11 69 -1 101 -40 101 -16 0 -32 -4
-35 -9z m64 -65 c0 -17 -24 -28 -45 -20 -29 12 -14 34 22 34 13 0 23 -6 23
-14z"/>
<path d="M8425 6088 c1 -13 4 -39 5 -58 3 -31 4 -29 9 15 5 42 10 51 28 53 23
3 27 -5 37 -73 2 -16 3 -5 2 25 l-1 55 -41 3 c-38 3 -41 1 -39 -20z"/>
<path d="M8678 6086 c-8 -20 -8 -32 0 -51 15 -32 37 -41 65 -26 22 11 22 11
-2 7 -25 -5 -51 8 -51 25 0 5 16 9 36 9 33 0 35 2 32 28 -2 22 -8 28 -35 30
-27 3 -35 -1 -45 -22z m65 0 c7 -19 -1 -26 -30 -26 -22 0 -31 19 -16 33 11 12
41 7 46 -7z"/>
<path d="M8800 6055 c0 -67 18 -73 22 -8 3 41 6 48 28 54 21 6 20 7 -12 8
l-38 1 0 -55z"/>
<path d="M9130 6102 c0 -4 12 -8 27 -7 43 0 44 -33 1 -37 -25 -2 -34 -8 -36
-25 -3 -23 13 -31 66 -31 19 -1 22 4 22 38 0 58 -8 70 -46 70 -19 0 -34 -4
-34 -8z m60 -66 c0 -16 -27 -29 -41 -20 -19 11 -9 34 16 34 15 0 25 -6 25 -14z"/>
<path d="M9251 6053 c1 -32 4 -44 6 -28 8 67 13 76 36 73 19 -3 22 -10 25 -50
4 -55 22 -65 22 -12 0 54 -15 74 -55 74 l-35 0 1 -57z"/>
<path d="M11680 6100 c0 -6 10 -8 26 -4 17 4 29 2 34 -7 13 -19 3 -29 -30 -29
-31 0 -47 -25 -29 -46 6 -8 26 -13 46 -11 l34 2 -3 50 c-3 50 -3 50 -40 53
-23 2 -38 -1 -38 -8z m70 -59 c0 -16 -27 -31 -44 -25 -28 11 -19 34 14 34 17
0 30 -4 30 -9z"/>
<path d="M11793 6094 c31 -97 32 -106 14 -119 -10 -7 -14 -16 -9 -19 5 -3 15
0 21 7 16 21 62 147 53 147 -5 0 -15 -18 -22 -40 -15 -44 -25 -44 -35 0 -4 16
-11 33 -17 36 -7 5 -9 0 -5 -12z"/>
<path d="M11908 6070 c-2 -22 0 -47 3 -57 4 -11 8 1 10 32 3 39 8 51 23 53 24
5 35 -14 37 -63 2 -33 3 -35 6 -10 8 67 13 76 36 73 19 -3 22 -10 25 -50 4
-55 22 -65 22 -12 0 63 -11 72 -89 72 l-69 1 -4 -39z"/>
<path d="M12110 6091 c-15 -29 -12 -56 8 -74 21 -20 41 -21 62 -6 12 8 10 10
-9 5 -25 -5 -51 8 -51 25 0 5 16 9 35 9 36 0 42 10 29 44 -9 23 -61 21 -74 -3z
m63 -5 c7 -19 -1 -26 -30 -26 -22 0 -31 19 -16 33 11 12 41 7 46 -7z"/>
<path d="M12231 6053 c1 -32 4 -44 6 -28 8 67 13 76 36 73 19 -3 22 -10 25
-50 4 -55 22 -65 22 -12 0 54 -15 74 -55 74 l-35 0 1 -57z"/>
<path d="M12660 6102 c0 -4 12 -8 27 -7 43 0 44 -33 1 -37 -25 -2 -34 -8 -36
-25 -3 -23 13 -31 66 -31 19 -1 22 4 22 38 0 58 -8 70 -46 70 -19 0 -34 -4
-34 -8z m60 -67 c0 -21 -27 -30 -45 -15 -19 16 -10 30 21 30 15 0 24 -6 24
-15z"/>
<path d="M12862 6098 c-17 -17 -15 -64 4 -82 18 -19 50 -21 60 -5 4 7 0 9 -14
5 -13 -4 -26 0 -38 11 -17 17 -16 18 24 21 32 2 42 7 42 21 0 23 -19 41 -45
41 -12 0 -26 -5 -33 -12z m56 -21 c3 -12 -3 -17 -22 -17 -25 0 -35 18 -19 34
12 12 38 2 41 -17z"/>
<path d="M12960 6107 c0 -18 33 -107 40 -107 4 0 15 19 23 43 10 27 17 37 21
27 3 -8 10 -28 16 -44 6 -17 14 -25 19 -20 14 15 40 104 31 104 -4 0 -15 -19
-23 -42 l-14 -43 -13 43 c-7 23 -17 42 -21 42 -4 0 -13 -16 -19 -35 -6 -19
-15 -35 -20 -35 -5 0 -12 16 -16 35 -3 19 -10 35 -15 35 -5 0 -9 -1 -9 -3z"/>
<path d="M13145 6100 c-5 -7 2 -9 20 -4 18 4 30 2 35 -7 13 -19 3 -29 -30 -29
-31 0 -47 -25 -29 -46 6 -8 26 -13 46 -11 l34 2 -3 50 c-3 48 -4 50 -35 53
-17 2 -34 -2 -38 -8z m65 -59 c0 -15 -29 -33 -45 -27 -28 10 -17 36 15 36 17
0 30 -4 30 -9z"/>
<path d="M13253 6094 c31 -97 32 -106 14 -119 -10 -7 -14 -16 -9 -19 5 -3 15
0 21 7 18 22 62 147 51 147 -5 0 -15 -18 -21 -40 -13 -44 -24 -44 -34 0 -4 16
-11 33 -17 36 -7 5 -9 0 -5 -12z"/>
<path d="M3384 5788 c-4 -6 -3 -8 4 -4 7 4 12 -11 15 -46 l3 -53 2 58 c2 54
-8 72 -24 45z"/>
<path d="M3513 5784 c-3 -8 -2 -19 3 -24 5 -5 9 1 9 16 0 28 -3 30 -12 8z"/>
<path d="M4173 5745 c0 -33 2 -45 4 -27 2 18 2 45 0 60 -2 15 -4 0 -4 -33z"/>
<path d="M5390 5749 c0 -46 -2 -51 -20 -46 -11 3 -18 1 -14 -4 3 -5 14 -9 25
-9 16 0 19 7 19 55 0 30 -2 55 -5 55 -3 0 -5 -23 -5 -51z"/>
<path d="M4298 5777 c-7 -22 7 -80 20 -83 7 -1 8 0 2 3 -12 6 -13 60 -1 65 5
2 3 8 -4 15 -10 9 -14 9 -17 0z"/>
<path d="M4569 5779 c-2 -29 3 -74 9 -81 4 -4 6 13 5 38 -1 43 -12 74 -14 43z"/>
<path d="M5738 5777 c-7 -22 7 -80 20 -83 7 -1 8 0 2 3 -12 6 -13 60 -1 65 5
2 3 8 -4 15 -10 9 -14 9 -17 0z"/>
<path d="M3615 5760 c-3 -6 1 -7 9 -4 18 7 21 14 7 14 -6 0 -13 -4 -16 -10z"/>
<path d="M3723 5759 c10 -6 18 -23 18 -42 2 -31 2 -31 6 -4 5 29 -11 57 -31
57 -6 0 -3 -5 7 -11z"/>
<path d="M3785 5759 c-11 -16 -1 -19 13 -3 7 8 8 14 3 14 -5 0 -13 -5 -16 -11z"/>
<path d="M4005 5760 c-3 -6 1 -7 9 -4 18 7 21 14 7 14 -6 0 -13 -4 -16 -10z"/>
<path d="M4095 5760 c-3 -6 1 -7 9 -4 18 7 21 14 7 14 -6 0 -13 -4 -16 -10z"/>
<path d="M4203 5760 c9 -6 17 -20 17 -30 0 -10 -8 -24 -17 -30 -11 -7 -12 -10
-4 -7 8 2 19 11 25 20 12 19 -1 48 -25 54 -8 3 -7 0 4 -7z"/>
<path d="M4487 5763 c-3 -5 5 -8 18 -8 13 0 21 3 18 8 -2 4 -10 7 -18 7 -8 0
-16 -3 -18 -7z"/>
<path d="M4800 5766 c0 -2 7 -7 16 -10 8 -3 12 -2 9 4 -6 10 -25 14 -25 6z"/>
<path d="M4925 5761 c-4 -7 0 -8 10 -4 10 3 21 0 27 -8 8 -12 9 -11 5 1 -5 18
-33 25 -42 11z"/>
<path d="M5013 5763 c-8 -3 -12 -20 -12 -41 l2 -37 6 34 c4 21 14 37 26 42 12
4 14 8 5 8 -8 -1 -21 -3 -27 -6z"/>
<path d="M5132 5758 c-24 -24 -6 -69 28 -67 9 0 6 4 -7 9 -27 11 -30 45 -5 59
9 6 12 11 7 11 -6 0 -16 -5 -23 -12z"/>
<path d="M5298 5752 c9 -10 19 -17 21 -16 6 5 -20 34 -30 34 -5 0 -1 -8 9 -18z"/>
<path d="M5350 5755 c-6 -8 -10 -20 -7 -27 4 -8 6 -7 6 4 1 9 9 22 19 27 9 6
12 11 6 11 -6 0 -17 -7 -24 -15z"/>
<path d="M5478 5763 c7 -3 16 -2 19 1 4 3 -2 6 -13 5 -11 0 -14 -3 -6 -6z"/>
<path d="M5660 5755 c-6 -8 -10 -20 -7 -27 4 -8 6 -7 6 4 1 9 9 22 19 27 9 6
12 11 6 11 -6 0 -17 -7 -24 -15z"/>
<path d="M5893 5763 c-7 -2 -13 -12 -13 -21 0 -14 1 -14 13 0 6 9 19 18 27 21
13 5 13 5 0 5 -8 0 -21 -2 -27 -5z"/>
<path d="M3651 5744 c0 -11 3 -14 6 -6 3 7 2 16 -1 19 -3 4 -6 -2 -5 -13z"/>
<path d="M3693 5725 c0 -22 2 -30 4 -17 2 12 2 30 0 40 -3 9 -5 -1 -4 -23z"/>
<path d="M4131 5744 c0 -11 3 -14 6 -6 3 7 2 16 -1 19 -3 4 -6 -2 -5 -13z"/>
<path d="M4423 5725 c0 -22 2 -30 4 -17 2 12 2 30 0 40 -3 9 -5 -1 -4 -23z"/>
<path d="M4623 5728 c2 -28 6 -33 30 -34 25 -1 27 2 26 35 -1 36 -1 36 -8 6
-9 -42 -38 -45 -45 -6 l-6 31 3 -32z"/>
<path d="M5203 5725 c0 -22 2 -30 4 -17 2 12 2 30 0 40 -3 9 -5 -1 -4 -23z"/>
<path d="M5433 5725 c0 -22 2 -30 4 -17 2 12 2 30 0 40 -3 9 -5 -1 -4 -23z"/>
<path d="M5590 5725 c0 -19 2 -35 4 -35 2 0 6 16 8 35 2 19 0 35 -4 35 -4 0
-8 -16 -8 -35z"/>
<path d="M5701 5744 c0 -11 3 -14 6 -6 3 7 2 16 -1 19 -3 4 -6 -2 -5 -13z"/>
<path d="M5791 5740 c-1 -26 15 -50 33 -50 5 0 3 6 -6 13 -9 6 -19 23 -21 37
l-4 25 -2 -25z"/>
<path d="M5843 5725 c0 -22 2 -30 4 -17 2 12 2 30 0 40 -3 9 -5 -1 -4 -23z"/>
<path d="M5953 5725 c0 -22 2 -30 4 -17 2 12 2 30 0 40 -3 9 -5 -1 -4 -23z"/>
<path d="M3553 5743 c28 -7 16 -38 -15 -38 -15 1 -24 -3 -22 -7 8 -13 41 -9
54 7 16 19 6 45 -17 44 -17 -1 -17 -2 0 -6z"/>
<path d="M5262 5730 c0 -14 2 -19 5 -12 2 6 2 18 0 25 -3 6 -5 1 -5 -13z"/>
<path d="M6002 5720 c0 -19 2 -27 5 -17 2 9 2 25 0 35 -3 9 -5 1 -5 -18z"/>
<path d="M3601 5729 c-1 -21 24 -43 41 -36 8 3 6 6 -5 6 -10 1 -22 11 -27 24
-6 15 -9 17 -9 6z"/>
<path d="M4081 5729 c-1 -21 24 -43 41 -36 8 3 6 6 -5 6 -10 1 -22 11 -27 24
-6 15 -9 17 -9 6z"/>
<path d="M3906 5715 c4 -8 8 -15 10 -15 2 0 4 7 4 15 0 8 -4 15 -10 15 -5 0
-7 -7 -4 -15z"/>
<path d="M3780 5712 c0 -18 29 -27 43 -13 9 9 8 11 -7 5 -11 -4 -21 -2 -27 7
-6 10 -9 11 -9 1z"/>
<path d="M4000 5712 c0 -18 29 -27 43 -13 9 9 8 11 -7 5 -11 -4 -21 -2 -27 7
-6 10 -9 11 -9 1z"/>
<path d="M4960 5711 c0 -8 -8 -11 -20 -8 -11 3 -18 1 -14 -4 3 -5 11 -9 19 -9
16 0 30 18 21 27 -3 4 -6 1 -6 -6z"/>
<path d="M5881 5704 c0 -11 3 -14 6 -6 3 7 2 16 -1 19 -3 4 -6 -2 -5 -13z"/>
<path d="M4488 5698 c5 -5 16 -8 23 -6 8 3 3 7 -10 11 -17 4 -21 3 -13 -5z"/>
<path d="M5668 5698 c5 -5 16 -8 23 -6 8 3 3 7 -10 11 -17 4 -21 3 -13 -5z"/>
<path d="M3878 5693 c7 -3 16 -2 19 1 4 3 -2 6 -13 5 -11 0 -14 -3 -6 -6z"/>
<path d="M5288 5693 c7 -3 16 -2 19 1 4 3 -2 6 -13 5 -11 0 -14 -3 -6 -6z"/>
<path d="M1056 5652 c-3 -4 -4 -89 -3 -188 l2 -179 38 -3 37 -3 0 190 0 191
-34 0 c-19 0 -37 -4 -40 -8z"/>
<path d="M3379 5589 c-2 -29 3 -74 9 -81 4 -4 6 13 5 38 -1 43 -12 74 -14 43z"/>
<path d="M3908 5587 c-7 -22 7 -80 20 -83 7 -1 8 0 2 3 -12 6 -13 60 -1 65 5
2 3 8 -4 15 -10 9 -14 9 -17 0z"/>
<path d="M3508 5573 c7 -3 16 -2 19 1 4 3 -2 6 -13 5 -11 0 -14 -3 -6 -6z"/>
<path d="M3613 5569 c10 -6 18 -23 18 -42 2 -31 2 -31 6 -4 5 29 -11 57 -31
57 -6 0 -3 -5 7 -11z"/>
<path d="M3676 5571 c-4 -5 3 -7 14 -4 23 6 26 13 6 13 -8 0 -17 -4 -20 -9z"/>
<path d="M4033 5569 c9 -5 18 -20 18 -32 1 -18 2 -18 6 -4 5 20 -13 47 -31 47
-6 0 -3 -5 7 -11z"/>
<path d="M4110 5576 c0 -2 7 -7 16 -10 8 -3 12 -2 9 4 -6 10 -25 14 -25 6z"/>
<path d="M3433 5535 c0 -22 2 -30 4 -17 2 12 2 30 0 40 -3 9 -5 -1 -4 -23z"/>
<path d="M3543 5535 c0 -22 2 -30 4 -17 2 12 2 30 0 40 -3 9 -5 -1 -4 -23z"/>
<path d="M3583 5535 c0 -22 2 -30 4 -17 2 12 2 30 0 40 -3 9 -5 -1 -4 -23z"/>
<path d="M3793 5535 c0 -22 2 -30 4 -17 2 12 2 30 0 40 -3 9 -5 -1 -4 -23z"/>
<path d="M3963 5535 c0 -22 2 -30 4 -17 2 12 2 30 0 40 -3 9 -5 -1 -4 -23z"/>
<path d="M4002 5535 c0 -16 2 -22 5 -12 2 9 2 23 0 30 -3 6 -5 -1 -5 -18z"/>
<path d="M3495 5530 c-9 -15 4 -30 23 -29 15 1 14 2 -1 6 -11 3 -16 11 -13 19
6 16 0 19 -9 4z"/>
<path d="M3745 5530 c-9 -15 4 -30 23 -29 15 1 14 2 -1 6 -11 3 -16 11 -13 19
6 16 0 19 -9 4z"/>
<path d="M3695 5510 c-16 -7 -17 -9 -3 -9 9 -1 20 4 23 9 7 11 7 11 -20 0z"/>
<path d="M8499 5496 c12 -15 -323 -16 -3653 -16 -2437 0 -3666 -3 -3666 -10 0
-7 1229 -10 3666 -10 3330 0 3665 -1 3653 -16 -11 -13 -7 -13 24 2 20 10 37
21 37 24 0 3 -17 14 -37 24 -31 15 -35 15 -24 2z"/>
<path d="M8617 5503 c-4 -3 -7 -127 -7 -275 l0 -268 40 0 40 0 0 275 0 275
-33 0 c-19 0 -37 -3 -40 -7z"/>
<path d="M9087 5120 c3 -12 -2 -30 -13 -43 l-19 -22 23 19 c22 19 29 50 13 60
-5 4 -7 -3 -4 -14z"/>
<path d="M9903 5114 c0 -9 5 -10 19 -3 10 5 18 12 18 14 0 2 -8 3 -18 2 -10 0
-19 -7 -19 -13z"/>
<path d="M10188 5117 c-7 -22 7 -80 20 -83 7 -1 8 0 2 3 -12 6 -13 60 -1 65 5
2 3 8 -4 15 -10 9 -14 9 -17 0z"/>
<path d="M11079 5119 c-2 -29 3 -74 9 -81 4 -4 6 13 5 38 -1 43 -12 74 -14 43z"/>
<path d="M9275 5099 c-4 -6 -4 -13 -1 -16 3 -4 6 -1 6 6 0 8 8 11 20 8 11 -3
18 -1 14 4 -7 12 -31 11 -39 -2z"/>
<path d="M9363 5103 c-8 -3 -12 -20 -12 -41 l2 -37 6 34 c4 21 14 37 26 42 12
4 14 8 5 8 -8 -1 -21 -3 -27 -6z"/>
<path d="M9548 5103 c7 -3 16 -2 19 1 4 3 -2 6 -13 5 -11 0 -14 -3 -6 -6z"/>
<path d="M9687 5103 c-3 -5 5 -8 18 -8 13 0 21 3 18 8 -2 4 -10 7 -18 7 -8 0
-16 -3 -18 -7z"/>
<path d="M10053 5103 c-8 -3 -12 -20 -12 -41 l2 -37 6 34 c4 21 14 37 26 42
12 4 14 8 5 8 -8 -1 -21 -3 -27 -6z"/>
<path d="M10112 5098 c-24 -24 -6 -69 28 -67 9 0 6 4 -7 9 -27 11 -30 45 -5
59 9 6 12 11 7 11 -6 0 -16 -5 -23 -12z"/>
<path d="M10343 5103 c-8 -3 -12 -20 -12 -41 2 -34 2 -34 6 -7 2 17 12 36 21
43 16 12 8 15 -15 5z"/>
<path d="M10433 5099 c10 -6 18 -23 18 -42 2 -31 2 -31 6 -4 5 29 -11 57 -31
57 -6 0 -3 -5 7 -11z"/>
<path d="M10548 5103 c7 -3 16 -2 19 1 4 3 -2 6 -13 5 -11 0 -14 -3 -6 -6z"/>
<path d="M10603 5103 c-8 -3 -12 -20 -12 -41 l2 -37 6 34 c4 21 14 37 26 42
12 4 14 8 5 8 -8 -1 -21 -3 -27 -6z"/>
<path d="M10682 5104 c9 -3 19 -15 22 -27 4 -18 4 -18 3 3 -1 17 -8 25 -22 27
-14 1 -15 0 -3 -3z"/>
<path d="M10753 5103 c-8 -2 -12 -20 -12 -41 l2 -37 6 35 c9 51 38 53 44 3 l4
-38 -1 40 c-1 40 -14 51 -43 38z"/>
<path d="M10837 5103 c-10 -10 -8 -33 3 -33 5 0 7 6 4 14 -3 8 2 16 13 19 14
4 14 5 2 6 -9 0 -19 -2 -22 -6z"/>
<path d="M10938 5100 c12 -5 22 -15 22 -21 0 -7 3 -9 6 -6 10 10 -16 37 -35
36 -11 0 -9 -3 7 -9z"/>
<path d="M11006 5101 c-4 -5 3 -7 14 -4 23 6 26 13 6 13 -8 0 -17 -4 -20 -9z"/>
<path d="M11175 5100 c-3 -6 1 -7 9 -4 18 7 21 14 7 14 -6 0 -13 -4 -16 -10z"/>
<path d="M11263 5103 c-8 -2 -12 -20 -12 -41 l2 -37 6 35 c9 51 38 53 44 3 l4
-38 -1 40 c-1 40 -14 51 -43 38z"/>
<path d="M9455 5090 c-3 -5 -1 -10 4 -10 6 0 11 5 11 10 0 6 -2 10 -4 10 -3 0
-8 -4 -11 -10z"/>
<path d="M9583 5065 c0 -22 2 -30 4 -17 2 12 2 30 0 40 -3 9 -5 -1 -4 -23z"/>
<path d="M9623 5065 c0 -22 2 -30 4 -17 2 12 2 30 0 40 -3 9 -5 -1 -4 -23z"/>
<path d="M10151 5084 c0 -11 3 -14 6 -6 3 7 2 16 -1 19 -3 4 -6 -2 -5 -13z"/>
<path d="M10241 5080 c-1 -26 15 -50 33 -50 5 0 3 6 -6 13 -9 6 -19 23 -21 37
l-4 25 -2 -25z"/>
<path d="M10293 5065 c0 -22 2 -30 4 -17 2 12 2 30 0 40 -3 9 -5 -1 -4 -23z"/>
<path d="M10403 5065 c0 -22 2 -30 4 -17 2 12 2 30 0 40 -3 9 -5 -1 -4 -23z"/>
<path d="M9203 5083 c9 -2 23 -2 30 0 6 3 -1 5 -18 5 -16 0 -22 -2 -12 -5z"/>
<path d="M9988 5073 c7 -3 16 -2 19 1 4 3 -2 6 -13 5 -11 0 -14 -3 -6 -6z"/>
<path d="M9535 5060 c-9 -15 4 -30 23 -29 15 1 14 2 -1 6 -11 3 -16 11 -13 19
6 16 0 19 -9 4z"/>
<path d="M9806 5056 c4 -9 -3 -16 -18 -19 -22 -5 -22 -5 2 -4 24 2 44 37 21
37 -6 0 -8 -6 -5 -14z"/>
<path d="M10914 5050 c2 -21 56 -22 56 -2 0 13 -3 13 -12 4 -16 -16 -35 -15
-41 1 -2 7 -3 6 -3 -3z"/>
<path d="M9435 5049 c-4 -6 -5 -12 -2 -15 2 -3 7 2 10 11 7 17 1 20 -8 4z"/>
<path d="M9485 5049 c-4 -6 -5 -12 -2 -15 2 -3 7 2 10 11 7 17 1 20 -8 4z"/>
<path d="M9680 5052 c0 -18 29 -27 43 -13 9 9 8 11 -7 5 -11 -4 -21 -2 -27 7
-6 10 -9 11 -9 1z"/>
<path d="M11210 5051 c0 -8 -8 -11 -20 -8 -11 3 -18 1 -14 -4 3 -5 11 -9 19
-9 16 0 30 18 21 27 -3 4 -6 1 -6 -6z"/>
<path d="M9044 5039 c-3 -5 9 -9 25 -9 17 0 31 2 31 4 0 8 -51 13 -56 5z"/>
<path d="M9277 5038 c2 -5 10 -8 18 -8 8 0 16 3 18 8 3 4 -5 7 -18 7 -13 0
-21 -3 -18 -7z"/>
<path d="M11008 5038 c5 -5 16 -8 23 -6 8 3 3 7 -10 11 -17 4 -21 3 -13 -5z"/>
<path d="M10848 5033 c7 -3 16 -2 19 1 4 3 -2 6 -13 5 -11 0 -14 -3 -6 -6z"/>
<path d="M12280 5020 c0 -7 -569 -10 -1775 -10 -1177 0 -1775 -3 -1775 -10 0
-7 599 -10 1776 -10 1581 0 1776 -2 1770 -15 -5 -13 -1 -13 27 1 17 9 34 18
35 20 2 1 -10 10 -27 19 -17 9 -31 11 -31 5z"/>
<path d="M12390 4650 l0 -380 -245 0 -245 0 0 -215 0 -215 535 0 535 0 0 215
0 215 -250 0 -250 0 0 380 0 380 -40 0 -40 0 0 -380z m560 -595 l0 -195 -515
0 -515 0 0 195 0 195 515 0 515 0 0 -195z"/>
<path d="M12270 4193 c18 -9 11 -41 -10 -46 -17 -4 -16 -4 2 -3 17 1 23 7 23
25 0 13 -6 25 -13 27 -7 1 -8 0 -2 -3z"/>
<path d="M12628 4177 c-7 -22 7 -80 20 -83 7 -1 8 0 2 3 -12 6 -13 60 -1 65 5
2 3 8 -4 15 -10 9 -14 9 -17 0z"/>
<path d="M12332 4164 c9 -3 19 -15 22 -27 4 -18 4 -18 3 3 -1 17 -8 25 -22 27
-14 1 -15 0 -3 -3z"/>
<path d="M12462 4158 c-6 -6 -12 -19 -11 -27 0 -10 4 -7 9 7 11 26 36 29 44 5
4 -14 4 -14 3 2 -3 23 -27 31 -45 13z"/>
<path d="M12573 4159 c10 -6 18 -23 18 -42 2 -31 2 -31 6 -4 5 29 -11 57 -31
57 -6 0 -3 -5 7 -11z"/>
<path d="M12390 4125 c0 -19 2 -35 4 -35 2 0 6 16 8 35 2 19 0 35 -4 35 -4 0
-8 -16 -8 -35z"/>
<path d="M12543 4125 c0 -22 2 -30 4 -17 2 12 2 30 0 40 -3 9 -5 -1 -4 -23z"/>
<path d="M12468 4098 c5 -5 16 -8 23 -6 8 3 3 7 -10 11 -17 4 -21 3 -13 -5z"/>
<path d="M12212 3993 c-4 -10 -5 -36 -1 -58 l6 -40 2 38 c0 22 6 37 14 37 9 0
8 3 -2 9 -7 5 -10 14 -7 20 4 6 5 11 2 11 -3 0 -9 -8 -14 -17z"/>
<path d="M12645 3985 c0 -13 3 -21 8 -18 4 2 7 10 7 18 0 8 -3 16 -7 18 -5 3
-8 -5 -8 -18z"/>
<path d="M12265 3971 c-4 -7 0 -8 10 -4 10 3 21 0 27 -8 8 -12 9 -11 5 1 -5
18 -33 25 -42 11z"/>
<path d="M12463 3969 c10 -6 18 -23 18 -42 2 -31 2 -31 6 -4 5 29 -11 57 -31
57 -6 0 -3 -5 7 -11z"/>
<path d="M12527 3973 c-3 -5 5 -8 18 -8 13 0 21 3 18 8 -2 4 -10 7 -18 7 -8 0
-16 -3 -18 -7z"/>
<path d="M12343 3938 c1 -23 7 -33 20 -34 11 -1 12 0 3 3 -8 2 -17 17 -20 34
-6 28 -6 28 -3 -3z"/>
<path d="M12393 3935 c0 -22 2 -30 4 -17 2 12 2 30 0 40 -3 9 -5 -1 -4 -23z"/>
<path d="M12433 3935 c0 -22 2 -30 4 -17 2 12 2 30 0 40 -3 9 -5 -1 -4 -23z"/>
<path d="M12520 3922 c0 -18 29 -27 43 -13 9 9 8 11 -7 5 -11 -4 -21 -2 -27 7
-6 10 -9 11 -9 1z"/>
<path d="M12267 3908 c2 -5 10 -8 18 -8 8 0 16 3 18 8 3 4 -5 7 -18 7 -13 0
-21 -3 -18 -7z"/>
<path d="M12510 5000 c0 -6 30 -10 70 -10 l70 0 0 -225 0 -225 -36 0 c-21 0
-33 4 -29 10 10 15 -7 12 -37 -8 l-28 -18 35 -17 c24 -11 34 -13 32 -4 -1 8
12 12 41 11 l42 0 0 248 0 248 -80 0 c-47 0 -80 -4 -80 -10z"/>
<path d="M12842 4858 l-2 -58 38 2 c36 1 36 1 5 5 -31 4 -32 6 -36 56 l-3 52
-2 -57z"/>
<path d="M13102 4855 c-1 -49 1 -56 9 -35 l10 25 20 -25 20 -25 -12 25 c-7 14
-12 29 -11 34 2 5 -4 4 -12 -3 -13 -11 -15 -7 -19 26 -2 26 -4 19 -5 -22z"/>
<path d="M13322 4893 c-4 -10 -5 -36 -1 -58 l6 -40 2 38 c0 22 6 37 14 37 9 0
8 3 -2 9 -7 5 -10 14 -7 20 4 6 5 11 2 11 -3 0 -9 -8 -14 -17z"/>
<path d="M14330 4892 c0 -13 -7 -18 -22 -18 -20 1 -23 -4 -23 -34 0 -31 3 -35
28 -36 26 -1 27 1 27 52 0 30 -2 54 -5 54 -3 0 -5 -8 -5 -18z m-5 -52 c0 -16
-6 -26 -17 -28 -14 -3 -18 3 -18 28 0 25 4 31 18 28 11 -2 17 -12 17 -28z"/>
<path d="M15049 4889 c-2 -29 3 -74 9 -81 4 -4 6 13 5 38 -1 43 -12 74 -14 43z"/>
<path d="M12741 4867 c-13 -21 -12 -21 5 -5 10 10 16 20 13 22 -3 3 -11 -5
-18 -17z"/>
<path d="M12942 4868 c-7 -7 -12 -21 -11 -32 1 -18 2 -17 8 4 4 14 13 25 21
25 22 0 25 -37 4 -53 -11 -8 -13 -12 -5 -10 24 7 37 36 25 55 -14 22 -27 26
-42 11z"/>
<path d="M13025 4870 c-3 -6 1 -7 9 -4 18 7 21 14 7 14 -6 0 -13 -4 -16 -10z"/>
<path d="M13208 4873 c7 -3 16 -2 19 1 4 3 -2 6 -13 5 -11 0 -14 -3 -6 -6z"/>
<path d="M13372 4868 c-16 -16 -15 -43 3 -58 17 -14 45 -7 45 12 0 10 -3 9 -9
-1 -12 -19 -41 -6 -41 18 0 11 8 25 18 30 9 6 12 11 7 11 -6 0 -16 -5 -23 -12z"/>
<path d="M13652 4868 c-16 -16 -15 -43 3 -58 17 -14 45 -7 45 12 0 10 -3 9 -9
-1 -12 -19 -41 -6 -41 18 0 11 8 25 18 30 9 6 12 11 7 11 -6 0 -16 -5 -23 -12z"/>
<path d="M13867 4873 c-3 -5 5 -8 18 -8 13 0 21 3 18 8 -2 4 -10 7 -18 7 -8 0
-16 -3 -18 -7z"/>
<path d="M13947 4873 c-10 -10 -8 -33 3 -33 5 0 7 6 4 14 -3 8 2 16 13 19 14
4 14 5 2 6 -9 0 -19 -2 -22 -6z"/>
<path d="M14033 4873 c-8 -3 -13 -24 -12 -56 1 -31 4 -44 7 -32 4 11 16 20 27
20 16 0 20 7 20 35 0 35 -14 45 -42 33z m37 -33 c0 -32 -26 -43 -36 -15 -9 21
3 45 21 45 10 0 15 -10 15 -30z"/>
<path d="M14115 4869 c-4 -6 -4 -13 -1 -16 3 -4 6 -1 6 6 0 8 8 11 20 8 11 -3
18 -1 14 4 -7 12 -31 11 -39 -2z"/>
<path d="M14203 4873 c-8 -2 -12 -20 -12 -41 l2 -37 6 35 c7 38 36 53 45 23 4
-15 5 -15 3 2 -2 20 -21 28 -44 18z"/>
<path d="M14443 4869 c10 -6 18 -23 18 -42 2 -31 2 -31 6 -4 5 29 -11 57 -31
57 -6 0 -3 -5 7 -11z"/>
<path d="M14505 4869 c-11 -16 -1 -19 13 -3 7 8 8 14 3 14 -5 0 -13 -5 -16
-11z"/>
<path d="M14653 4873 c-9 -3 -12 -23 -11 -56 l1 -52 6 50 c7 55 30 69 42 25 6
-21 7 -22 8 -4 1 11 -4 25 -11 32 -13 13 -16 13 -35 5z"/>
<path d="M14980 4876 c0 -2 7 -7 16 -10 8 -3 12 -2 9 4 -6 10 -25 14 -25 6z"/>
<path d="M13453 4835 c0 -22 2 -30 4 -17 2 12 2 30 0 40 -3 9 -5 -1 -4 -23z"/>
<path d="M13733 4835 c0 -22 2 -30 4 -17 2 12 2 30 0 40 -3 9 -5 -1 -4 -23z"/>
<path d="M14373 4835 c0 -22 2 -30 4 -17 2 12 2 30 0 40 -3 9 -5 -1 -4 -23z"/>
<path d="M14413 4835 c0 -22 2 -30 4 -17 2 12 2 30 0 40 -3 9 -5 -1 -4 -23z"/>
<path d="M14773 4835 c0 -22 2 -30 4 -17 2 12 2 30 0 40 -3 9 -5 -1 -4 -23z"/>
<path d="M14813 4835 c0 -22 2 -30 4 -17 2 12 2 30 0 40 -3 9 -5 -1 -4 -23z"/>
<path d="M14872 4840 c0 -14 2 -19 5 -12 2 6 2 18 0 25 -3 6 -5 1 -5 -13z"/>
<path d="M12747 4831 c-4 -18 -11 -22 -26 -18 -12 3 -19 1 -15 -4 14 -23 61 6
52 33 -3 7 -7 2 -11 -11z"/>
<path d="M13011 4839 c-1 -9 6 -22 14 -29 17 -14 45 -7 44 12 0 10 -2 10 -6 1
-8 -21 -33 -15 -43 10 -6 15 -9 17 -9 6z"/>
<path d="M13226 4825 c4 -8 8 -15 10 -15 2 0 4 7 4 15 0 8 -4 15 -10 15 -5 0
-7 -7 -4 -15z"/>
<path d="M14725 4830 c-9 -15 4 -30 23 -29 15 1 14 2 -1 6 -11 3 -16 11 -13
19 6 16 0 19 -9 4z"/>
<path d="M14241 4814 c0 -11 3 -14 6 -6 3 7 2 16 -1 19 -3 4 -6 -2 -5 -13z"/>
<path d="M13868 4808 c5 -5 16 -8 23 -6 8 3 3 7 -10 11 -17 4 -21 3 -13 -5z"/>
<path d="M14117 4808 c2 -5 10 -8 18 -8 8 0 16 3 18 8 3 4 -5 7 -18 7 -13 0
-21 -3 -18 -7z"/>
<path d="M14507 4808 c2 -5 10 -8 18 -8 8 0 16 3 18 8 3 4 -5 7 -18 7 -13 0
-21 -3 -18 -7z"/>
<path d="M13198 4803 c7 -3 16 -2 19 1 4 3 -2 6 -13 5 -11 0 -14 -3 -6 -6z"/>
<path d="M13958 4803 c7 -3 16 -2 19 1 4 3 -2 6 -13 5 -11 0 -14 -3 -6 -6z"/>
<path d="M14898 4803 c7 -3 16 -2 19 1 4 3 -2 6 -13 5 -11 0 -14 -3 -6 -6z"/>
<path d="M14535 4780 c-3 -5 -1 -10 4 -10 6 0 11 5 11 10 0 6 -2 10 -4 10 -3
0 -8 -4 -11 -10z"/>
<path d="M13239 4699 c-2 -29 3 -74 9 -81 4 -4 6 13 5 38 -1 43 -12 74 -14 43z"/>
<path d="M12708 4683 c7 -3 16 -2 19 1 4 3 -2 6 -13 5 -11 0 -14 -3 -6 -6z"/>
<path d="M12848 4679 c17 -6 22 -15 20 -31 -4 -28 -34 -36 -42 -11 -4 15 -5
15 -3 -2 2 -14 11 -21 30 -23 24 -3 27 0 27 25 0 32 -16 53 -39 52 -10 0 -7
-4 7 -10z"/>
<path d="M12930 4686 c0 -2 7 -7 16 -10 8 -3 12 -2 9 4 -6 10 -25 14 -25 6z"/>
<path d="M13018 4683 c7 -3 16 -2 19 1 4 3 -2 6 -13 5 -11 0 -14 -3 -6 -6z"/>
<path d="M13088 4683 c7 -3 16 -2 19 1 4 3 -2 6 -13 5 -11 0 -14 -3 -6 -6z"/>
<path d="M13335 4679 c-4 -6 -4 -13 -1 -16 3 -4 6 -1 6 6 0 8 8 11 20 8 11 -3
18 -1 14 4 -7 12 -31 11 -39 -2z"/>
<path d="M13440 4686 c0 -2 7 -7 16 -10 8 -3 12 -2 9 4 -6 10 -25 14 -25 6z"/>
<path d="M13123 4645 c0 -22 2 -30 4 -17 2 12 2 30 0 40 -3 9 -5 -1 -4 -23z"/>
<path d="M13293 4645 c0 -22 2 -30 4 -17 2 12 2 30 0 40 -3 9 -5 -1 -4 -23z"/>
<path d="M13036 4635 c4 -8 8 -15 10 -15 2 0 4 7 4 15 0 8 -4 15 -10 15 -5 0
-7 -7 -4 -15z"/>
<path d="M13075 4640 c-9 -15 4 -30 23 -29 15 1 14 2 -1 6 -11 3 -16 11 -13
19 6 16 0 19 -9 4z"/>
<path d="M13163 4630 c2 -8 12 -16 23 -17 13 -2 15 -1 4 4 -8 3 -19 11 -23 17
-6 7 -7 6 -4 -4z"/>
<path d="M13330 4632 c0 -18 29 -27 43 -13 9 9 8 11 -7 5 -11 -4 -21 -2 -27 7
-6 10 -9 11 -9 1z"/>
<path d="M13008 4613 c7 -3 16 -2 19 1 4 3 -2 6 -13 5 -11 0 -14 -3 -6 -6z"/>
<path d="M12040 3795 c0 -8 5 -15 10 -15 6 0 10 7 10 15 0 8 -4 15 -10 15 -5
0 -10 -7 -10 -15z"/>
<path d="M12810 3795 c0 -8 5 -15 10 -15 6 0 10 7 10 15 0 8 -4 15 -10 15 -5
0 -10 -7 -10 -15z"/>
<path d="M12040 3715 c0 -8 5 -15 10 -15 6 0 10 7 10 15 0 8 -4 15 -10 15 -5
0 -10 -7 -10 -15z"/>
<path d="M12810 3715 c0 -8 5 -15 10 -15 6 0 10 7 10 15 0 8 -4 15 -10 15 -5
0 -10 -7 -10 -15z"/>
<path d="M12040 3635 c0 -8 5 -15 10 -15 6 0 10 7 10 15 0 8 -4 15 -10 15 -5
0 -10 -7 -10 -15z"/>
<path d="M12810 3635 c0 -8 5 -15 10 -15 6 0 10 7 10 15 0 8 -4 15 -10 15 -5
0 -10 -7 -10 -15z"/>
<path d="M11868 3622 c9 -10 19 -17 21 -16 6 5 -20 34 -30 34 -5 0 -1 -8 9
-18z"/>
<path d="M11938 3633 c7 -3 16 -2 19 1 4 3 -2 6 -13 5 -11 0 -14 -3 -6 -6z"/>
<path d="M11832 3600 c0 -14 2 -19 5 -12 2 6 2 18 0 25 -3 6 -5 1 -5 -13z"/>
<path d="M11790 3591 c0 -7 -4 -9 -10 -6 -5 3 -10 2 -10 -4 0 -5 4 -12 9 -15
10 -6 25 24 16 32 -3 3 -5 0 -5 -7z"/>
<path d="M11956 3586 c4 -9 -3 -16 -18 -19 -22 -5 -22 -5 2 -4 24 2 44 37 21
37 -6 0 -8 -6 -5 -14z"/>
<path d="M11858 3563 c7 -3 16 -2 19 1 4 3 -2 6 -13 5 -11 0 -14 -3 -6 -6z"/>
<path d="M12040 3555 c0 -8 5 -15 10 -15 6 0 10 7 10 15 0 8 -4 15 -10 15 -5
0 -10 -7 -10 -15z"/>
<path d="M12810 3555 c0 -8 5 -15 10 -15 6 0 10 7 10 15 0 8 -4 15 -10 15 -5
0 -10 -7 -10 -15z"/>
<path d="M12040 3475 c0 -8 5 -15 10 -15 6 0 10 7 10 15 0 8 -4 15 -10 15 -5
0 -10 -7 -10 -15z"/>
<path d="M12810 3475 c0 -8 5 -15 10 -15 6 0 10 7 10 15 0 8 -4 15 -10 15 -5
0 -10 -7 -10 -15z"/>
<path d="M12040 3395 c0 -8 5 -15 10 -15 6 0 10 7 10 15 0 8 -4 15 -10 15 -5
0 -10 -7 -10 -15z"/>
<path d="M12810 3395 c0 -8 5 -15 10 -15 6 0 10 7 10 15 0 8 -4 15 -10 15 -5
0 -10 -7 -10 -15z"/>
<path d="M12045 3327 c-4 -10 -5 -21 -1 -24 10 -10 18 4 13 24 -4 17 -4 17
-12 0z"/>
<path d="M12810 3321 c0 -12 5 -21 10 -21 6 0 10 6 10 14 0 8 -4 18 -10 21 -5
3 -10 -3 -10 -14z"/>
<path d="M12040 3240 c0 -11 5 -20 10 -20 6 0 10 9 10 20 0 11 -4 20 -10 20
-5 0 -10 -9 -10 -20z"/>
<path d="M12810 3240 c0 -11 5 -20 10 -20 6 0 10 9 10 20 0 11 -4 20 -10 20
-5 0 -10 -9 -10 -20z"/>
<path d="M12040 3160 c0 -11 5 -20 10 -20 6 0 10 9 10 20 0 11 -4 20 -10 20
-5 0 -10 -9 -10 -20z"/>
<path d="M12810 3160 c0 -11 5 -20 10 -20 6 0 10 9 10 20 0 11 -4 20 -10 20
-5 0 -10 -9 -10 -20z"/>
<path d="M12282 3130 c10 -16 10 -24 0 -40 -12 -19 -11 -19 23 -3 19 9 35 20
35 23 0 3 -16 14 -35 23 -34 16 -35 16 -23 -3z"/>
<path d="M12390 2405 l0 -745 40 0 40 0 0 745 0 745 -40 0 -40 0 0 -745z"/>
<path d="M12060 3110 c0 -5 9 -10 20 -10 11 0 20 5 20 10 0 6 -9 10 -20 10
-11 0 -20 -4 -20 -10z"/>
<path d="M12140 3110 c0 -5 9 -10 20 -10 11 0 20 5 20 10 0 6 -9 10 -20 10
-11 0 -20 -4 -20 -10z"/>
<path d="M12220 3110 c0 -5 9 -10 20 -10 11 0 20 5 20 10 0 6 -9 10 -20 10
-11 0 -20 -4 -20 -10z"/>
<path d="M12810 3080 c0 -11 5 -20 10 -20 6 0 10 9 10 20 0 11 -4 20 -10 20
-5 0 -10 -9 -10 -20z"/>
<path d="M12810 3000 c0 -11 5 -20 10 -20 6 0 10 9 10 20 0 11 -4 20 -10 20
-5 0 -10 -9 -10 -20z"/>
<path d="M12810 2920 c0 -11 5 -20 10 -20 6 0 10 9 10 20 0 11 -4 20 -10 20
-5 0 -10 -9 -10 -20z"/>
<path d="M12810 2840 c0 -11 5 -20 10 -20 6 0 10 9 10 20 0 11 -4 20 -10 20
-5 0 -10 -9 -10 -20z"/>
<path d="M12810 2760 c0 -11 5 -20 10 -20 6 0 10 9 10 20 0 11 -4 20 -10 20
-5 0 -10 -9 -10 -20z"/>
<path d="M12810 2680 c0 -11 5 -20 10 -20 6 0 10 9 10 20 0 11 -4 20 -10 20
-5 0 -10 -9 -10 -20z"/>
<path d="M12933 2669 c10 -6 18 -23 18 -42 2 -31 2 -31 6 -4 5 29 -11 57 -31
57 -6 0 -3 -5 7 -11z"/>
<path d="M13010 2676 c0 -2 7 -7 16 -10 8 -3 12 -2 9 4 -6 10 -25 14 -25 6z"/>
<path d="M12903 2635 c0 -22 2 -30 4 -17 2 12 2 30 0 40 -3 9 -5 -1 -4 -23z"/>
<path d="M12192 2403 l3 -247 43 1 c33 0 42 -3 38 -13 -3 -8 -3 -14 0 -14 9 0
64 30 64 35 0 2 -13 11 -30 20 -17 9 -30 11 -30 5 0 -5 -16 -10 -35 -10 l-35
0 2 223 3 222 68 3 c94 4 84 22 -13 22 l-80 0 2 -247z"/>
<path d="M12990 2622 c0 -18 29 -27 43 -13 9 9 8 11 -7 5 -11 -4 -21 -2 -27 7
-6 10 -9 11 -9 1z"/>
<path d="M12810 2600 c0 -11 5 -20 10 -20 6 0 10 9 10 20 0 11 -4 20 -10 20
-5 0 -10 -9 -10 -20z"/>
<path d="M10165 2559 c-4 -6 -5 -12 -2 -15 2 -3 7 2 10 11 7 17 1 20 -8 4z"/>
<path d="M10281 2515 l2 -60 7 50 c4 28 3 54 -1 60 -5 5 -8 -16 -8 -50z"/>
<path d="M10347 2536 c-9 -20 -22 -34 -27 -31 -6 4 -7 -1 -3 -11 6 -15 7 -15
19 2 7 10 18 25 24 32 6 7 10 20 8 29 -2 10 -9 3 -21 -21z"/>
<path d="M10710 2555 c0 -2 8 -9 18 -14 14 -7 19 -6 19 3 0 6 -9 13 -19 13
-10 1 -18 0 -18 -2z"/>
<path d="M10999 2549 c-2 -29 3 -74 9 -81 4 -4 6 13 5 38 -1 43 -12 74 -14 43z"/>
<path d="M11348 2547 c-7 -22 7 -80 20 -83 7 -1 8 0 2 3 -12 6 -13 60 -1 65 5
2 3 8 -4 15 -10 9 -14 9 -17 0z"/>
<path d="M10427 2534 c17 -4 23 -14 26 -42 l4 -37 -1 40 c-1 35 -4 40 -26 42
-21 1 -21 0 -3 -3z"/>
<path d="M10523 2529 c9 -5 18 -20 18 -32 1 -18 2 -18 6 -4 5 20 -13 47 -31
47 -6 0 -3 -5 7 -11z"/>
<path d="M10598 2533 c7 -3 16 -2 19 1 4 3 -2 6 -13 5 -11 0 -14 -3 -6 -6z"/>
<path d="M10948 2522 c9 -10 19 -17 21 -16 6 5 -20 34 -30 34 -5 0 -1 -8 9
-18z"/>
<path d="M11230 2536 c0 -2 7 -7 16 -10 8 -3 12 -2 9 4 -6 10 -25 14 -25 6z"/>
<path d="M11413 2533 c-8 -3 -12 -20 -12 -41 l2 -37 6 34 c4 21 14 37 26 42
12 4 14 8 5 8 -8 -1 -21 -3 -27 -6z"/>
<path d="M11480 2536 c0 -2 9 -6 20 -9 11 -3 18 -1 14 4 -5 9 -34 13 -34 5z"/>
<path d="M11563 2533 c-8 -2 -12 -20 -12 -41 l2 -37 6 35 c9 51 38 53 44 3 l4
-38 -1 40 c-1 40 -14 51 -43 38z"/>
<path d="M11647 2533 c-10 -10 -8 -33 3 -33 5 0 7 6 4 14 -3 8 2 16 13 19 14
4 14 5 2 6 -9 0 -19 -2 -22 -6z"/>
<path d="M11742 2534 c11 -3 18 -19 21 -42 l4 -37 -1 40 c-1 32 -5 40 -21 42
-15 1 -15 0 -3 -3z"/>
<path d="M11810 2525 c-6 -8 -10 -20 -7 -27 3 -8 6 -6 6 5 1 10 11 22 24 27
15 6 17 9 6 9 -9 1 -22 -6 -29 -14z"/>
<path d="M11888 2533 c7 -3 16 -2 19 1 4 3 -2 6 -13 5 -11 0 -14 -3 -6 -6z"/>
<path d="M11982 2528 c-16 -16 -15 -43 3 -58 17 -14 45 -7 45 12 0 10 -3 9 -9
-1 -12 -19 -41 -6 -41 18 0 11 8 25 18 30 9 6 12 11 7 11 -6 0 -16 -5 -23 -12z"/>
<path d="M12810 2520 c0 -11 5 -20 10 -20 6 0 10 9 10 20 0 11 -4 20 -10 20
-5 0 -10 -9 -10 -20z"/>
<path d="M10493 2480 c0 -30 2 -43 4 -27 2 15 2 39 0 55 -2 15 -4 2 -4 -28z"/>
<path d="M10853 2495 c0 -22 2 -30 4 -17 2 12 2 30 0 40 -3 9 -5 -1 -4 -23z"/>
<path d="M11053 2498 c2 -28 6 -33 30 -34 25 -1 27 2 26 35 -1 36 -1 36 -8 6
-9 -42 -38 -45 -45 -6 l-6 31 3 -32z"/>
<path d="M11143 2495 c0 -22 2 -30 4 -17 2 12 2 30 0 40 -3 9 -5 -1 -4 -23z"/>
<path d="M12063 2495 c0 -22 2 -30 4 -17 2 12 2 30 0 40 -3 9 -5 -1 -4 -23z"/>
<path d="M10362 2495 c0 -16 2 -22 5 -12 2 9 2 23 0 30 -3 6 -5 -1 -5 -18z"/>
<path d="M10912 2500 c0 -14 2 -19 5 -12 2 6 2 18 0 25 -3 6 -5 1 -5 -13z"/>
<path d="M12112 2490 c0 -19 2 -27 5 -17 2 9 2 25 0 35 -3 9 -5 1 -5 -18z"/>
<path d="M10798 2503 c7 -3 16 -2 19 1 4 3 -2 6 -13 5 -11 0 -14 -3 -6 -6z"/>
<path d="M11512 2485 c0 -16 2 -22 5 -12 2 9 2 23 0 30 -3 6 -5 -1 -5 -18z"/>
<path d="M10405 2490 c-9 -15 4 -30 23 -29 15 1 14 2 -1 6 -11 3 -16 11 -13
19 6 16 0 19 -9 4z"/>
<path d="M10616 2486 c4 -9 -3 -16 -18 -19 -22 -5 -22 -5 2 -4 24 2 44 37 21
37 -6 0 -8 -6 -5 -14z"/>
<path d="M10130 2486 c0 -8 61 -12 66 -4 3 4 -11 8 -30 8 -20 0 -36 -2 -36 -4z"/>
<path d="M11818 2468 c5 -5 16 -8 23 -6 8 3 3 7 -10 11 -17 4 -21 3 -13 -5z"/>
<path d="M10938 2463 c7 -3 16 -2 19 1 4 3 -2 6 -13 5 -11 0 -14 -3 -6 -6z"/>
<path d="M11478 2463 c7 -3 16 -2 19 1 4 3 -2 6 -13 5 -11 0 -14 -3 -6 -6z"/>
<path d="M11658 2463 c7 -3 16 -2 19 1 4 3 -2 6 -13 5 -11 0 -14 -3 -6 -6z"/>
<path d="M11728 2463 c7 -3 16 -2 19 1 4 3 -2 6 -13 5 -11 0 -14 -3 -6 -6z"/>
<path d="M12810 2440 c0 -11 5 -20 10 -20 6 0 10 9 10 20 0 11 -4 20 -10 20
-5 0 -10 -9 -10 -20z"/>
<path d="M11180 2329 c0 -43 -3 -50 -17 -47 -25 5 -29 39 -7 56 11 8 13 12 5
10 -43 -13 -37 -70 8 -76 19 -3 21 1 21 52 0 31 -2 56 -5 56 -3 0 -5 -23 -5
-51z"/>
<path d="M12810 2360 c0 -11 5 -20 10 -20 6 0 10 9 10 20 0 11 -4 20 -10 20
-5 0 -10 -9 -10 -20z"/>
<path d="M10348 2357 c-7 -22 7 -80 20 -83 7 -1 8 0 2 3 -12 6 -13 60 -1 65 5
2 3 8 -4 15 -10 9 -14 9 -17 0z"/>
<path d="M11439 2359 c-2 -29 3 -74 9 -81 4 -4 6 13 5 38 -1 43 -12 74 -14 43z"/>
<path d="M12099 2359 c-2 -29 3 -74 9 -81 4 -4 6 13 5 38 -1 43 -12 74 -14 43z"/>
<path d="M10405 2339 c-4 -6 -4 -13 -1 -16 3 -4 6 -1 6 6 0 8 8 11 20 8 11 -3
18 -1 14 4 -7 12 -31 11 -39 -2z"/>
<path d="M10540 2335 c-6 -8 -10 -20 -7 -27 4 -8 6 -7 6 4 1 9 9 22 19 27 9 6
12 11 6 11 -6 0 -17 -7 -24 -15z"/>
<path d="M10818 2343 c7 -3 16 -2 19 1 4 3 -2 6 -13 5 -11 0 -14 -3 -6 -6z"/>
<path d="M10930 2346 c0 -2 7 -7 16 -10 8 -3 12 -2 9 4 -6 10 -25 14 -25 6z"/>
<path d="M11002 2338 c-22 -22 -7 -69 23 -68 5 0 2 5 -7 11 -10 5 -18 19 -18
29 0 10 8 24 18 29 9 6 12 11 7 11 -6 0 -16 -5 -23 -12z"/>
<path d="M11258 2332 c9 -10 19 -17 21 -16 6 5 -20 34 -30 34 -5 0 -1 -8 9
-18z"/>
<path d="M11311 2334 c0 -11 3 -14 6 -6 3 7 2 16 -1 19 -3 4 -6 -2 -5 -13z"/>
<path d="M11330 2346 c0 -2 7 -7 16 -10 8 -3 12 -2 9 4 -6 10 -25 14 -25 6z"/>
<path d="M11560 2346 c0 -2 7 -7 16 -10 8 -3 12 -2 9 4 -6 10 -25 14 -25 6z"/>
<path d="M11756 2341 c-4 -5 3 -7 14 -4 23 6 26 13 6 13 -8 0 -17 -4 -20 -9z"/>
<path d="M11833 2343 c-7 -2 -13 -14 -12 -26 0 -21 1 -21 8 -3 4 11 16 23 27
27 12 5 13 8 4 8 -8 -1 -21 -3 -27 -6z"/>
<path d="M11892 2338 c-7 -7 -12 -19 -11 -27 0 -10 4 -6 10 8 7 17 15 22 29
18 11 -3 18 -1 14 4 -7 13 -28 11 -42 -3z"/>
<path d="M11977 2343 c-3 -5 5 -8 18 -8 13 0 21 3 18 8 -2 4 -10 7 -18 7 -8 0
-16 -3 -18 -7z"/>
<path d="M10581 2324 c0 -11 3 -14 6 -6 3 7 2 16 -1 19 -3 4 -6 -2 -5 -13z"/>
<path d="M10628 2324 c7 -13 8 -25 2 -32 -7 -9 -7 -9 2 -2 8 6 16 4 25 -8 13
-15 13 -15 4 5 -6 12 -9 28 -8 35 2 7 2 9 -1 5 -2 -4 -11 -2 -20 5 -13 11 -14
10 -4 -8z"/>
<path d="M11040 2293 c-3 -29 -1 -48 3 -44 5 5 7 28 5 52 l-3 44 -5 -52z"/>
<path d="M11393 2305 c0 -22 2 -30 4 -17 2 12 2 30 0 40 -3 9 -5 -1 -4 -23z"/>
<path d="M11222 2310 c0 -14 2 -19 5 -12 2 6 2 18 0 25 -3 6 -5 1 -5 -13z"/>
<path d="M10776 2296 c4 -9 -3 -16 -18 -19 -22 -5 -22 -5 2 -4 24 2 44 37 21
37 -6 0 -8 -6 -5 -14z"/>
<path d="M11310 2288 c0 -19 34 -25 45 -8 4 6 -1 7 -10 3 -10 -3 -21 0 -26 8
-7 11 -9 11 -9 -3z"/>
<path d="M11540 2292 c0 -18 29 -27 43 -13 9 9 8 11 -7 5 -11 -4 -21 -2 -27 7
-6 10 -9 11 -9 1z"/>
<path d="M12810 2286 c0 -8 5 -18 10 -21 6 -3 10 3 10 14 0 12 -4 21 -10 21
-5 0 -10 -6 -10 -14z"/>
<path d="M10430 2280 c-9 -6 -10 -10 -3 -10 6 0 15 5 18 10 8 12 4 12 -15 0z"/>
<path d="M10548 2278 c5 -5 16 -8 23 -6 8 3 3 7 -10 11 -17 4 -21 3 -13 -5z"/>
<path d="M11758 2278 c5 -5 16 -8 23 -6 8 3 3 7 -10 11 -17 4 -21 3 -13 -5z"/>
<path d="M11898 2278 c5 -5 16 -8 23 -6 8 3 3 7 -10 11 -17 4 -21 3 -13 -5z"/>
<path d="M11977 2278 c2 -5 10 -8 18 -8 8 0 16 3 18 8 3 4 -5 7 -18 7 -13 0
-21 -3 -18 -7z"/>
<path d="M11248 2273 c7 -3 16 -2 19 1 4 3 -2 6 -13 5 -11 0 -14 -3 -6 -6z"/>
<path d="M12810 2205 c0 -8 5 -15 10 -15 6 0 10 7 10 15 0 8 -4 15 -10 15 -5
0 -10 -7 -10 -15z"/>
<path d="M12810 2125 c0 -8 5 -15 10 -15 6 0 10 7 10 15 0 8 -4 15 -10 15 -5
0 -10 -7 -10 -15z"/>
<path d="M12810 2045 c0 -8 5 -15 10 -15 6 0 10 7 10 15 0 8 -4 15 -10 15 -5
0 -10 -7 -10 -15z"/>
<path d="M12810 1965 c0 -8 5 -15 10 -15 6 0 10 7 10 15 0 8 -4 15 -10 15 -5
0 -10 -7 -10 -15z"/>
<path d="M12810 1885 c0 -8 5 -15 10 -15 6 0 10 7 10 15 0 8 -4 15 -10 15 -5
0 -10 -7 -10 -15z"/>
<path d="M7293 1814 c-3 -8 -2 -19 3 -24 5 -5 9 1 9 16 0 28 -3 30 -12 8z"/>
<path d="M8692 1813 c-4 -10 -5 -36 -1 -58 l6 -40 2 38 c0 22 6 37 14 37 9 0
8 3 -2 9 -7 5 -10 14 -7 20 4 6 5 11 2 11 -3 0 -9 -8 -14 -17z"/>
<path d="M7783 1804 c0 -7 6 -10 14 -7 7 3 13 8 13 12 0 4 -6 8 -13 8 -8 0
-14 -6 -14 -13z"/>
<path d="M8068 1807 c-7 -22 7 -80 20 -83 7 -1 8 0 2 3 -12 6 -13 60 -1 65 5
2 3 8 -4 15 -10 9 -14 9 -17 0z"/>
<path d="M8599 1809 c-2 -29 3 -74 9 -81 4 -4 6 13 5 38 -1 43 -12 74 -14 43z"/>
<path d="M8938 1807 c-7 -22 7 -80 20 -83 7 -1 8 0 2 3 -12 6 -13 60 -1 65 5
2 3 8 -4 15 -10 9 -14 9 -17 0z"/>
<path d="M12810 1805 c0 -8 5 -15 10 -15 6 0 10 7 10 15 0 8 -4 15 -10 15 -5
0 -10 -7 -10 -15z"/>
<path d="M7390 1785 c-6 -8 -10 -20 -7 -27 4 -8 6 -7 6 4 1 9 9 22 19 27 9 6
12 11 6 11 -6 0 -17 -7 -24 -15z"/>
<path d="M7503 1789 c10 -6 18 -23 18 -42 2 -31 2 -31 6 -4 5 29 -11 57 -31
57 -6 0 -3 -5 7 -11z"/>
<path d="M7567 1793 c-3 -5 5 -8 18 -8 13 0 21 3 18 8 -2 4 -10 7 -18 7 -8 0
-16 -3 -18 -7z"/>
<path d="M7933 1793 c-8 -3 -12 -20 -12 -41 l2 -37 6 34 c4 21 14 37 26 42 12
4 14 8 5 8 -8 -1 -21 -3 -27 -6z"/>
<path d="M8453 1789 c10 -6 18 -23 18 -42 2 -31 2 -31 6 -4 5 29 -11 57 -31
57 -6 0 -3 -5 7 -11z"/>
<path d="M8530 1796 c0 -2 7 -7 16 -10 8 -3 12 -2 9 4 -6 10 -25 14 -25 6z"/>
<path d="M8877 1794 c17 -4 23 -14 26 -42 l4 -37 -1 40 c-1 35 -4 40 -26 42
-21 1 -21 0 -3 -3z"/>
<path d="M9063 1789 c9 -5 18 -20 18 -32 1 -18 2 -18 6 -4 5 20 -13 47 -31 47
-6 0 -3 -5 7 -11z"/>
<path d="M9140 1796 c0 -2 7 -7 16 -10 8 -3 12 -2 9 4 -6 10 -25 14 -25 6z"/>
<path d="M7196 1777 c3 -10 9 -15 12 -12 3 3 0 11 -7 18 -10 9 -11 8 -5 -6z"/>
<path d="M7431 1774 c0 -11 3 -14 6 -6 3 7 2 16 -1 19 -3 4 -6 -2 -5 -13z"/>
<path d="M7473 1755 c0 -22 2 -30 4 -17 2 12 2 30 0 40 -3 9 -5 -1 -4 -23z"/>
<path d="M8121 1770 c-1 -26 15 -50 33 -50 5 0 3 6 -6 13 -9 6 -19 23 -21 37
l-4 25 -2 -25z"/>
<path d="M8173 1755 c0 -22 2 -30 4 -17 2 12 2 30 0 40 -3 9 -5 -1 -4 -23z"/>
<path d="M8213 1755 c0 -22 2 -30 4 -17 2 12 2 30 0 40 -3 9 -5 -1 -4 -23z"/>
<path d="M8283 1755 c0 -22 2 -30 4 -17 2 12 2 30 0 40 -3 9 -5 -1 -4 -23z"/>
<path d="M8423 1755 c0 -22 2 -30 4 -17 2 12 2 30 0 40 -3 9 -5 -1 -4 -23z"/>
<path d="M8743 1755 c0 -22 2 -30 4 -17 2 12 2 30 0 40 -3 9 -5 -1 -4 -23z"/>
<path d="M8993 1755 c0 -22 2 -30 4 -17 2 12 2 30 0 40 -3 9 -5 -1 -4 -23z"/>
<path d="M7333 1773 c28 -7 16 -38 -15 -38 -15 1 -24 -3 -22 -7 8 -13 41 -9
54 7 16 19 6 45 -17 44 -17 -1 -17 -2 0 -6z"/>
<path d="M7982 1760 c0 -14 2 -19 5 -12 2 6 2 18 0 25 -3 6 -5 1 -5 -13z"/>
<path d="M8332 1750 c0 -19 2 -27 5 -17 2 9 2 25 0 35 -3 9 -5 1 -5 -18z"/>
<path d="M9032 1760 c0 -14 2 -19 5 -12 2 6 2 18 0 25 -3 6 -5 1 -5 -13z"/>
<path d="M7868 1763 c7 -3 16 -2 19 1 4 3 -2 6 -13 5 -11 0 -14 -3 -6 -6z"/>
<path d="M7686 1745 c4 -8 8 -15 10 -15 2 0 4 7 4 15 0 8 -4 15 -10 15 -5 0
-7 -7 -4 -15z"/>
<path d="M8855 1750 c-9 -15 4 -30 23 -29 15 1 14 2 -1 6 -11 3 -16 11 -13 19
6 16 0 19 -9 4z"/>
<path d="M7200 1741 c0 -8 -8 -11 -20 -8 -11 3 -18 1 -14 -4 3 -5 11 -9 19 -9
16 0 30 18 21 27 -3 4 -6 1 -6 -6z"/>
<path d="M7560 1742 c0 -18 29 -27 43 -13 9 9 8 11 -7 5 -11 -4 -21 -2 -27 7
-6 10 -9 11 -9 1z"/>
<path d="M8510 1742 c0 -18 29 -27 43 -13 9 9 8 11 -7 5 -11 -4 -21 -2 -27 7
-6 10 -9 11 -9 1z"/>
<path d="M7398 1728 c5 -5 16 -8 23 -6 8 3 3 7 -10 11 -17 4 -21 3 -13 -5z"/>
<path d="M8788 1728 c5 -5 16 -8 23 -6 8 3 3 7 -10 11 -17 4 -21 3 -13 -5z"/>
<path d="M12810 1725 c0 -8 5 -15 10 -15 6 0 10 7 10 15 0 8 -4 15 -10 15 -5
0 -10 -7 -10 -15z"/>
<path d="M4832 988 l3 -743 38 -3 37 -3 0 745 0 746 -40 0 -40 0 2 -742z"/>
<path d="M4992 1712 l-33 -18 36 -17 c20 -10 34 -13 30 -7 -4 7 1177 10 3659
10 3220 0 3666 2 3666 15 0 13 -440 14 -3617 14 -4211 0 -3716 -1 -3708 11 8
13 6 12 -33 -8z"/>
<path d="M7658 1723 c7 -3 16 -2 19 1 4 3 -2 6 -13 5 -11 0 -14 -3 -6 -6z"/>
<path d="M8008 1723 c7 -3 16 -2 19 1 4 3 -2 6 -13 5 -11 0 -14 -3 -6 -6z"/>
<path d="M12810 1645 c0 -8 5 -15 10 -15 6 0 10 7 10 15 0 8 -4 15 -10 15 -5
0 -10 -7 -10 -15z"/>
<path d="M12810 1565 c0 -8 5 -15 10 -15 6 0 10 7 10 15 0 8 -4 15 -10 15 -5
0 -10 -7 -10 -15z"/>
<path d="M12810 1485 c0 -8 5 -15 10 -15 6 0 10 7 10 15 0 8 -4 15 -10 15 -5
0 -10 -7 -10 -15z"/>
<path d="M12810 1405 c0 -8 5 -15 10 -15 6 0 10 7 10 15 0 8 -4 15 -10 15 -5
0 -10 -7 -10 -15z"/>
<path d="M12810 1325 c0 -8 5 -15 10 -15 6 0 10 7 10 15 0 8 -4 15 -10 15 -5
0 -10 -7 -10 -15z"/>
<path d="M12390 750 l0 -510 40 0 40 0 0 510 0 510 -40 0 -40 0 0 -510z"/>
<path d="M12551 1241 l-35 -18 32 -17 c38 -20 48 -20 33 -2 -9 11 -10 20 -1
35 13 25 14 25 -29 2z"/>
<path d="M12810 1245 c0 -8 5 -15 10 -15 6 0 10 7 10 15 0 8 -4 15 -10 15 -5
0 -10 -7 -10 -15z"/>
<path d="M12590 1220 c0 -5 7 -10 15 -10 8 0 15 5 15 10 0 6 -7 10 -15 10 -8
0 -15 -4 -15 -10z"/>
<path d="M12670 1220 c0 -5 7 -10 15 -10 8 0 15 5 15 10 0 6 -7 10 -15 10 -8
0 -15 -4 -15 -10z"/>
<path d="M12750 1220 c0 -5 7 -10 15 -10 8 0 15 5 15 10 0 6 -7 10 -15 10 -8
0 -15 -4 -15 -10z"/>
<path d="M12510 750 c0 -6 30 -10 70 -10 l70 0 0 -225 0 -225 -36 0 c-21 0
-33 4 -29 10 3 6 3 10 0 10 -10 0 -67 -31 -63 -34 1 -2 18 -11 37 -21 30 -15
33 -15 28 -1 -5 13 1 16 38 16 l45 0 0 245 0 245 -80 0 c-47 0 -80 -4 -80 -10z"/>
<path d="M12847 653 c-12 -11 -8 -78 5 -91 7 -7 19 -12 28 -11 9 0 6 4 -7 9
-19 8 -23 17 -23 49 0 22 5 42 13 44 6 3 7 6 1 6 -6 1 -14 -2 -17 -6z"/>
<path d="M12880 656 c0 -2 7 -7 16 -10 8 -3 12 -2 9 4 -6 10 -25 14 -25 6z"/>
<path d="M13949 644 c-3 -10 -2 -37 1 -59 l6 -40 5 42 c5 48 -4 92 -12 57z"/>
<path d="M14520 642 c0 -13 -7 -18 -22 -18 -20 1 -23 -4 -23 -34 0 -31 3 -35
28 -36 26 -1 27 1 27 52 0 30 -2 54 -5 54 -3 0 -5 -8 -5 -18z m-5 -52 c0 -16
-6 -26 -17 -28 -14 -3 -18 3 -18 28 0 25 4 31 18 28 11 -2 17 -12 17 -28z"/>
<path d="M14632 635 c0 -16 2 -24 5 -17 2 6 8 10 12 8 4 -3 8 1 8 9 0 8 -4 12
-8 9 -4 -2 -10 2 -12 8 -3 7 -5 0 -5 -17z"/>
<path d="M12978 612 c9 -10 19 -17 21 -16 6 5 -20 34 -30 34 -5 0 -1 -8 9 -18z"/>
<path d="M13063 619 c10 -6 18 -23 18 -42 2 -31 2 -31 6 -4 5 29 -11 57 -31
57 -6 0 -3 -5 7 -11z"/>
<path d="M13127 623 c-3 -5 5 -8 18 -8 13 0 21 3 18 8 -2 4 -10 7 -18 7 -8 0
-16 -3 -18 -7z"/>
<path d="M13213 623 c-8 -3 -12 -20 -12 -41 l2 -37 6 34 c4 21 14 37 26 42 12
4 14 8 5 8 -8 -1 -21 -3 -27 -6z"/>
<path d="M13292 624 c11 -3 18 -19 21 -42 l4 -37 -1 40 c-1 32 -5 40 -21 42
-15 1 -15 0 -3 -3z"/>
<path d="M13358 623 c7 -3 16 -2 19 1 4 3 -2 6 -13 5 -11 0 -14 -3 -6 -6z"/>
<path d="M13496 621 c-4 -5 3 -7 14 -4 23 6 26 13 6 13 -8 0 -17 -4 -20 -9z"/>
<path d="M13867 623 c-3 -5 5 -8 18 -8 13 0 21 3 18 8 -2 4 -10 7 -18 7 -8 0
-16 -3 -18 -7z"/>
<path d="M14160 626 c0 -2 7 -7 16 -10 8 -3 12 -2 9 4 -6 10 -25 14 -25 6z"/>
<path d="M14233 623 c-8 -2 -12 -20 -11 -41 l1 -37 4 33 c5 36 29 53 45 31 8
-12 9 -11 5 1 -4 16 -24 22 -44 13z"/>
<path d="M14320 615 c-6 -8 -10 -22 -7 -32 4 -14 5 -13 6 5 1 13 10 26 24 32
15 6 17 9 6 9 -9 1 -22 -6 -29 -14z"/>
<path d="M14397 623 c-3 -5 5 -8 18 -8 13 0 21 3 18 8 -2 4 -10 7 -18 7 -8 0
-16 -3 -18 -7z"/>
<path d="M14840 626 c0 -2 7 -7 16 -10 8 -3 12 -2 9 4 -6 10 -25 14 -25 6z"/>
<path d="M14908 623 c7 -3 16 -2 19 1 4 3 -2 6 -13 5 -11 0 -14 -3 -6 -6z"/>
<path d="M15123 623 c-8 -2 -12 -20 -12 -41 l2 -37 6 35 c9 51 38 53 44 3 l4
-38 -1 40 c-1 40 -14 51 -43 38z"/>
<path d="M12706 605 c-3 -9 -6 -22 -5 -28 0 -7 5 -1 10 12 5 13 8 26 5 28 -2
2 -6 -3 -10 -12z"/>
<path d="M13033 585 c0 -22 2 -30 4 -17 2 12 2 30 0 40 -3 9 -5 -1 -4 -23z"/>
<path d="M13623 588 c1 -23 7 -33 20 -34 11 -1 12 0 3 3 -8 2 -17 17 -20 34
-6 28 -6 28 -3 -3z"/>
<path d="M13673 585 c0 -22 2 -30 4 -17 2 12 2 30 0 40 -3 9 -5 -1 -4 -23z"/>
<path d="M13713 585 c0 -22 2 -30 4 -17 2 12 2 30 0 40 -3 9 -5 -1 -4 -23z"/>
<path d="M13803 585 c0 -22 2 -30 4 -17 2 12 2 30 0 40 -3 9 -5 -1 -4 -23z"/>
<path d="M14823 588 c1 -23 7 -33 20 -34 11 -1 12 0 3 3 -8 2 -17 17 -20 34
-6 28 -6 28 -3 -3z"/>
<path d="M12746 596 c5 -13 1 -24 -12 -34 -10 -8 -13 -12 -5 -10 25 7 37 36
23 50 -11 11 -12 9 -6 -6z"/>
<path d="M12888 603 c7 -3 16 -2 19 1 4 3 -2 6 -13 5 -11 0 -14 -3 -6 -6z"/>
<path d="M12942 590 c0 -14 2 -19 5 -12 2 6 2 18 0 25 -3 6 -5 1 -5 -13z"/>
<path d="M13402 590 c0 -14 2 -19 5 -12 2 6 2 18 0 25 -3 6 -5 1 -5 -13z"/>
<path d="M13762 580 c0 -19 2 -27 5 -17 2 9 2 25 0 35 -3 9 -5 1 -5 -18z"/>
<path d="M13992 590 c0 -14 2 -19 5 -12 2 6 2 18 0 25 -3 6 -5 1 -5 -13z"/>
<path d="M13864 575 c1 -12 9 -21 21 -22 14 -1 15 0 3 3 -9 3 -19 13 -21 22
-3 12 -4 11 -3 -3z"/>
<path d="M14271 574 c0 -11 3 -14 6 -6 3 7 2 16 -1 19 -3 4 -6 -2 -5 -13z"/>
<path d="M13128 558 c5 -5 16 -8 23 -6 8 3 3 7 -10 11 -17 4 -21 3 -13 -5z"/>
<path d="M13515 560 c-16 -7 -17 -9 -3 -9 9 -1 20 4 23 9 7 11 7 11 -20 0z"/>
<path d="M14148 558 c5 -5 16 -8 23 -6 8 3 3 7 -10 11 -17 4 -21 3 -13 -5z"/>
<path d="M14398 558 c5 -5 16 -8 23 -6 8 3 3 7 -10 11 -17 4 -21 3 -13 -5z"/>
<path d="M14967 558 c2 -5 13 -8 24 -8 10 0 19 3 19 8 0 4 -11 7 -24 7 -13 0
-22 -3 -19 -7z"/>
<path d="M12968 553 c7 -3 16 -2 19 1 4 3 -2 6 -13 5 -11 0 -14 -3 -6 -6z"/>
<path d="M13428 553 c7 -3 16 -2 19 1 4 3 -2 6 -13 5 -11 0 -14 -3 -6 -6z"/>
<path d="M14018 553 c7 -3 16 -2 19 1 4 3 -2 6 -13 5 -11 0 -14 -3 -6 -6z"/>
<path d="M14338 553 c7 -3 16 -2 19 1 4 3 -2 6 -13 5 -11 0 -14 -3 -6 -6z"/>
<path d="M13239 449 c-2 -29 3 -74 9 -81 4 -4 6 13 5 38 -1 43 -12 74 -14 43z"/>
<path d="M12708 433 c7 -3 16 -2 19 1 4 3 -2 6 -13 5 -11 0 -14 -3 -6 -6z"/>
<path d="M12848 429 c13 -5 21 -13 17 -18 -3 -5 -1 -12 5 -16 14 -9 13 18 -2
33 -7 7 -19 12 -27 11 -10 0 -7 -4 7 -10z"/>
<path d="M12930 436 c0 -2 7 -7 16 -10 8 -3 12 -2 9 4 -6 10 -25 14 -25 6z"/>
<path d="M13018 433 c7 -3 16 -2 19 1 4 3 -2 6 -13 5 -11 0 -14 -3 -6 -6z"/>
<path d="M13102 434 c11 -3 18 -19 21 -42 l4 -37 -1 40 c-1 32 -5 40 -21 42
-15 1 -15 0 -3 -3z"/>
<path d="M13335 429 c-4 -6 -4 -13 -1 -16 3 -4 6 -1 6 6 0 8 8 11 20 8 11 -3
18 -1 14 4 -7 12 -31 11 -39 -2z"/>
<path d="M13440 436 c0 -2 7 -7 16 -10 8 -3 12 -2 9 4 -6 10 -25 14 -25 6z"/>
<path d="M13293 395 c0 -22 2 -30 4 -17 2 12 2 30 0 40 -3 9 -5 -1 -4 -23z"/>
<path d="M7201 404 c0 -11 3 -14 6 -6 3 7 2 16 -1 19 -3 4 -6 -2 -5 -13z"/>
<path d="M7293 404 c-3 -8 -2 -19 3 -24 5 -5 9 1 9 16 0 28 -3 30 -12 8z"/>
<path d="M8692 403 c-4 -10 -5 -36 -1 -58 l6 -40 2 38 c0 22 6 37 14 37 9 0 8
3 -2 9 -7 5 -10 14 -7 20 4 6 5 11 2 11 -3 0 -9 -8 -14 -17z"/>
<path d="M7783 394 c0 -9 5 -10 19 -3 10 5 18 12 18 14 0 2 -8 3 -18 2 -10 0
-19 -7 -19 -13z"/>
<path d="M8068 397 c-7 -22 7 -80 20 -83 7 -1 8 0 2 3 -12 6 -13 60 -1 65 5 2
3 8 -4 15 -10 9 -14 9 -17 0z"/>
<path d="M8599 399 c-2 -29 3 -74 9 -81 4 -4 6 13 5 38 -1 43 -12 74 -14 43z"/>
<path d="M8938 397 c-7 -22 7 -80 20 -83 7 -1 8 0 2 3 -12 6 -13 60 -1 65 5 2
3 8 -4 15 -10 9 -14 9 -17 0z"/>
<path d="M12824 380 c1 -8 10 -16 21 -17 15 -1 15 0 3 3 -9 3 -19 11 -21 17
-2 7 -3 5 -3 -3z"/>
<path d="M13036 386 c4 -9 -3 -16 -18 -19 -22 -5 -22 -5 2 -4 24 2 44 37 21
37 -6 0 -8 -6 -5 -14z"/>
<path d="M13075 390 c-9 -15 4 -30 23 -29 15 1 14 2 -1 6 -11 3 -16 11 -13 19
6 16 0 19 -9 4z"/>
<path d="M7396 381 c-3 -5 2 -7 13 -4 13 3 21 -1 25 -14 4 -16 5 -15 3 2 -2
21 -31 33 -41 16z"/>
<path d="M7503 379 c10 -6 18 -23 18 -42 2 -31 2 -31 6 -4 5 29 -11 57 -31 57
-6 0 -3 -5 7 -11z"/>
<path d="M7567 383 c-3 -5 5 -8 18 -8 13 0 21 3 18 8 -2 4 -10 7 -18 7 -8 0
-16 -3 -18 -7z"/>
<path d="M7933 383 c-8 -3 -12 -20 -12 -41 l2 -37 6 34 c4 21 14 37 26 42 12
4 14 8 5 8 -8 -1 -21 -3 -27 -6z"/>
<path d="M8018 372 c9 -10 19 -17 21 -16 6 5 -20 34 -30 34 -5 0 -1 -8 9 -18z"/>
<path d="M8223 383 c-8 -3 -12 -20 -12 -41 2 -34 2 -34 6 -7 2 17 12 36 21 43
16 12 8 15 -15 5z"/>
<path d="M8313 379 c10 -6 18 -23 18 -42 2 -31 2 -31 6 -4 5 29 -11 57 -31 57
-6 0 -3 -5 7 -11z"/>
<path d="M8517 383 c-3 -5 5 -8 18 -8 13 0 21 3 18 8 -2 4 -10 7 -18 7 -8 0
-16 -3 -18 -7z"/>
<path d="M9063 379 c9 -5 18 -20 18 -32 1 -18 2 -18 6 -4 5 20 -13 47 -31 47
-6 0 -3 -5 7 -11z"/>
<path d="M9140 386 c0 -2 7 -7 16 -10 8 -3 12 -2 9 4 -6 10 -25 14 -25 6z"/>
<path d="M7473 345 c0 -22 2 -30 4 -17 2 12 2 30 0 40 -3 9 -5 -1 -4 -23z"/>
<path d="M8121 360 c-1 -26 15 -50 33 -50 5 0 3 6 -6 13 -9 6 -19 23 -21 37
l-4 25 -2 -25z"/>
<path d="M8173 345 c0 -22 2 -30 4 -17 2 12 2 30 0 40 -3 9 -5 -1 -4 -23z"/>
<path d="M8283 345 c0 -22 2 -30 4 -17 2 12 2 30 0 40 -3 9 -5 -1 -4 -23z"/>
<path d="M8423 345 c0 -22 2 -30 4 -17 2 12 2 30 0 40 -3 9 -5 -1 -4 -23z"/>
<path d="M8743 345 c0 -22 2 -30 4 -17 2 12 2 30 0 40 -3 9 -5 -1 -4 -23z"/>
<path d="M8903 345 c0 -22 2 -30 4 -17 2 12 2 30 0 40 -3 9 -5 -1 -4 -23z"/>
<path d="M8993 345 c0 -22 2 -30 4 -17 2 12 2 30 0 40 -3 9 -5 -1 -4 -23z"/>
<path d="M12710 370 c0 -5 5 -10 11 -10 5 0 7 5 4 10 -3 6 -8 10 -11 10 -2 0
-4 -4 -4 -10z"/>
<path d="M13337 368 c2 -5 10 -8 18 -8 8 0 16 3 18 8 3 4 -5 7 -18 7 -13 0
-21 -3 -18 -7z"/>
<path d="M7332 364 c9 -3 19 -13 22 -22 3 -12 4 -12 3 3 -1 12 -10 21 -22 22
-15 1 -15 0 -3 -3z"/>
<path d="M7982 350 c0 -14 2 -19 5 -12 2 6 2 18 0 25 -3 6 -5 1 -5 -13z"/>
<path d="M8472 340 c0 -19 2 -27 5 -17 2 9 2 25 0 35 -3 9 -5 1 -5 -18z"/>
<path d="M9032 350 c0 -14 2 -19 5 -12 2 6 2 18 0 25 -3 6 -5 1 -5 -13z"/>
<path d="M7381 349 c-1 -21 24 -43 41 -36 8 3 6 6 -5 6 -10 1 -22 11 -27 24
-6 15 -9 17 -9 6z"/>
<path d="M7868 353 c7 -3 16 -2 19 1 4 3 -2 6 -13 5 -11 0 -14 -3 -6 -6z"/>
<path d="M7690 337 c0 -8 -10 -18 -22 -20 l-23 -4 23 -2 c22 -1 41 23 28 36
-3 4 -6 -1 -6 -10z"/>
<path d="M8855 340 c-9 -15 4 -30 23 -29 15 1 14 2 -1 6 -11 3 -16 11 -13 19
6 16 0 19 -9 4z"/>
<path d="M7560 332 c0 -18 29 -27 43 -13 9 9 8 11 -7 5 -11 -4 -21 -2 -27 7
-6 10 -9 11 -9 1z"/>
<path d="M7298 318 c6 -6 18 -8 28 -6 14 3 12 5 -9 10 -19 3 -25 2 -19 -4z"/>
<path d="M8517 318 c2 -5 10 -8 18 -8 8 0 16 3 18 8 3 4 -5 7 -18 7 -13 0 -21
-3 -18 -7z"/>
<path d="M4987 294 c-16 -9 -27 -17 -25 -19 1 -1 18 -10 37 -20 30 -15 33 -15
28 -1 -6 15 302 16 3658 16 2437 0 3665 3 3665 10 0 7 -1229 10 -3666 10
-2441 0 -3663 3 -3659 10 9 14 -5 12 -38 -6z"/>
</g>
</svg>
