<svg xmlns="http://www.w3.org/2000/svg" viewBox="0 0 48 45"><defs><style>.cls-1,.cls-2{fill:none;stroke:#2983fb;stroke-width:2px;}.cls-1{stroke-linecap:round;stroke-linejoin:round;}.cls-2{stroke-miterlimit:10;}</style></defs><title>docs_1</title><g id="Ebene_2" data-name="Ebene 2"><g id="Ebene_1-2" data-name="Ebene 1"><polyline id="layer2" class="cls-1" points="47 32.2 47 1 8.6 1 8.6 29.4"/><ellipse id="layer2-2" data-name="layer2" class="cls-1" cx="14.7" cy="8.8" rx="0.8" ry="0.7"/><ellipse id="layer2-3" data-name="layer2" class="cls-1" cx="14.7" cy="16.7" rx="0.8" ry="0.7"/><ellipse id="layer2-4" data-name="layer2" class="cls-1" cx="14.7" cy="24.6" rx="0.8" ry="0.7"/><line class="cls-2" x1="20" y1="8.8" x2="42.3" y2="8.8"/><line class="cls-2" x1="20" y1="16.7" x2="42.3" y2="16.7"/><line class="cls-2" x1="20" y1="24.6" x2="42.3" y2="24.6"/><rect id="layer1" class="cls-2" x="1" y="26.1" width="7.7" height="16.4"/><path id="layer1-2" data-name="layer1" class="cls-2" d="M8.6,39.7c1.5,0,11.5,4.3,16.9,4.3,3.3,0,6.1-1.6,12.3-4.5C40.7,38.1,47,34.6,47,32c0-3-8.4.8-15.4,3"/><path id="layer1-3" data-name="layer1" class="cls-2" d="M20.9,38.1h7.7a3,3,0,0,0,3.1-3h0a3,3,0,0,0-3.1-3H25.5c-9.2,0-6.1-4.5-16.8-4.5"/></g></g></svg>