<?xml version="1.0" encoding="utf-8"?>
<!-- Generator: Adobe Illustrator 24.0.2, SVG Export Plug-In . SVG Version: 6.00 Build 0)  -->
<svg version="1.1" id="Ebene_1" xmlns="http://www.w3.org/2000/svg" xmlns:xlink="http://www.w3.org/1999/xlink" x="0px" y="0px"
	 viewBox="0 0 48.5 48.5" style="enable-background:new 0 0 48.5 48.5;" xml:space="preserve">
<style type="text/css">
	.st0{fill:none;stroke:#2983FB;stroke-width:2;stroke-miterlimit:10;}
</style>
<title>payments</title>
<g id="Ebene_2_1_">
	<g id="Ebene_1-2">
		<g id="Ebene_1-3">
			<path class="st0" d="M25.2,13c-1,0.1-2.1,0.2-3.1,0.2c-6.2,0-7.7-2.9-13.4-2.9s-7.7,2-7.7,2v15.9c2.7-1.2,5.6-1.7,8.6-1.7
				c5.2,0,8.8,2.9,13.4,2.9c0.7,0,1.5,0,2.2-0.1c1.6-0.1,3.1-0.5,4.6-1.1V12.1C28.3,12.5,26.8,12.8,25.2,13"/>
			<path id="layer2" class="st0" d="M20.3,19.8c0.5,2.1-0.8,4.2-2.9,4.7c-0.3,0.1-0.7,0.1-1,0.1c-2.7-0.1-5.1-2.1-5.6-4.8
				c-0.5-2.1,0.8-4.2,2.9-4.7c0.3-0.1,0.7-0.1,1-0.1C17.4,15.1,19.8,17.1,20.3,19.8z"/>
			<path id="layer2-2" class="st0" d="M15.4,27.8v8.9c0,0.8,0.7,1.5,1.5,1.5H46c0.8,0,1.5-0.7,1.5-1.5V23.8"/>
			<line id="layer1" class="st0" x1="29.7" y1="32" x2="43.2" y2="32"/>
			<path id="layer1-2" class="st0" d="M5.7,10.6c0,0.2,0.1,0.5,0.1,0.8c0,2.7-2.1,4.8-4.8,4.8"/>
			<path id="layer1-3" class="st0" d="M1,22.8c2.4,0,4.4,1.8,4.7,4.2"/>
			<path class="st0" d="M25.2,13c0.4,2.2,2.3,3.8,4.5,3.9H46c0.8,0,1.5,0.7,1.5,1.5v5.4H29.7c-2.6,0.1-4.6,2.2-4.6,4.8
				c0,0.3,0,0.6,0.1,0.9"/>
		</g>
	</g>
</g>
</svg>
